<svg width="30" height="30" viewBox="0 0 30 30" fill="none" xmlns="http://www.w3.org/2000/svg">
<path d="M29.8744 18.3135L24.8201 9.88896L29.3561 8.62896C29.8238 8.49906 30.0976 8.01461 29.9677 7.54692C29.8378 7.07922 29.3532 6.80535 28.8856 6.93532L23.2471 8.50152C23.2467 8.50164 23.2463 8.50176 23.2459 8.50187L15.8789 10.5482V0.878904C15.8789 0.393515 15.4854 0 15 0C14.5146 0 14.1211 0.393515 14.1211 0.878904V11.0365L6.30219 13.2083C6.30178 13.2084 6.30137 13.2085 6.30096 13.2086L0.643921 14.7799C0.176168 14.9098 -0.0975815 15.3943 0.0322619 15.862C0.140367 16.251 0.493628 16.5059 0.878588 16.5059C0.956459 16.5059 1.03568 16.4954 1.11431 16.4736L4.64083 15.494L0.125602 23.0203C0.0436877 23.1569 0.000328409 23.3132 0.000328409 23.4725C0.000328409 27.0715 2.92843 29.9995 6.52748 29.9995C10.1267 29.9995 13.0547 27.0715 13.0547 23.4725C13.0547 23.3132 13.0114 23.1569 12.9294 23.0203L7.87502 14.5957L21.5857 10.7873L17.0705 18.3135C16.9886 18.4501 16.9453 18.6064 16.9453 18.7657C16.9453 22.3647 19.8733 25.2927 23.4724 25.2927C25.2159 25.2927 26.855 24.6138 28.0879 23.3809C29.3207 22.148 29.9997 20.509 29.9996 18.7655C29.9997 18.6063 29.9564 18.45 29.8744 18.3135ZM6.52748 28.2417C4.19797 28.2417 2.25407 26.5625 1.84023 24.3513H11.2147C10.8009 26.5625 8.85705 28.2417 6.52748 28.2417ZM10.6236 22.5935H2.43144L6.52748 15.7662L10.6236 22.5935ZM23.4724 11.0594L27.5686 17.8867H19.3763L23.4724 11.0594ZM23.4725 23.5349C21.143 23.5349 19.1991 21.8558 18.7851 19.6446H28.1598C27.7459 21.8558 25.8021 23.5349 23.4725 23.5349Z" fill="#C6C6C9"/>
</svg>
