<svg width="13" height="13" viewBox="0 0 13 13" fill="none" xmlns="http://www.w3.org/2000/svg">
<path d="M12.5951 1.5762C12.6711 1.65235 12.7137 1.75549 12.7137 1.86302C12.7137 1.97054 12.6711 2.07368 12.5951 2.14983L11.7477 2.99808L10.1227 1.37308L10.9701 0.524828C11.0463 0.448668 11.1496 0.405884 11.2574 0.405884C11.3651 0.405884 11.4684 0.448668 11.5446 0.524828L12.5951 1.57539V1.5762ZM11.1733 3.5717L9.54827 1.9467L4.01271 7.48308C3.96799 7.52779 3.93432 7.58232 3.91439 7.64233L3.26033 9.6037C3.24847 9.63946 3.24679 9.67781 3.25547 9.71447C3.26415 9.75113 3.28286 9.78465 3.30949 9.81129C3.33613 9.83793 3.36966 9.85664 3.40631 9.86532C3.44297 9.874 3.48132 9.87231 3.51708 9.86045L5.47846 9.20639C5.53839 9.1867 5.59291 9.15331 5.63771 9.10889L11.1733 3.57252V3.5717Z" fill="#174472"/>
<path fill-rule="evenodd" clip-rule="evenodd" d="M0.8125 10.9688C0.8125 11.292 0.940904 11.602 1.16946 11.8305C1.39802 12.0591 1.70802 12.1875 2.03125 12.1875H10.9688C11.292 12.1875 11.602 12.0591 11.8305 11.8305C12.0591 11.602 12.1875 11.292 12.1875 10.9688V6.09375C12.1875 5.98601 12.1447 5.88267 12.0685 5.80649C11.9923 5.7303 11.889 5.6875 11.7812 5.6875C11.6735 5.6875 11.5702 5.7303 11.494 5.80649C11.4178 5.88267 11.375 5.98601 11.375 6.09375V10.9688C11.375 11.0765 11.3322 11.1798 11.256 11.256C11.1798 11.3322 11.0765 11.375 10.9688 11.375H2.03125C1.92351 11.375 1.82017 11.3322 1.74399 11.256C1.6678 11.1798 1.625 11.0765 1.625 10.9688V2.03125C1.625 1.92351 1.6678 1.82017 1.74399 1.74399C1.82017 1.6678 1.92351 1.625 2.03125 1.625H7.3125C7.42024 1.625 7.52358 1.5822 7.59976 1.50601C7.67595 1.42983 7.71875 1.32649 7.71875 1.21875C7.71875 1.11101 7.67595 1.00767 7.59976 0.931488C7.52358 0.855301 7.42024 0.8125 7.3125 0.8125H2.03125C1.70802 0.8125 1.39802 0.940904 1.16946 1.16946C0.940904 1.39802 0.8125 1.70802 0.8125 2.03125V10.9688Z" fill="#174472"/>
</svg>
