<svg width="16" height="16" viewBox="0 0 16 16" fill="none" xmlns="http://www.w3.org/2000/svg">
<g clip-path="url(#clip0_83_6560)">
<path d="M3.03393e-07 8C-0.000342641 7.11918 0.290063 6.26287 0.826149 5.56397C1.36224 4.86507 2.11402 4.36266 2.96484 4.13471C3.81566 3.90676 4.71793 3.96602 5.53162 4.30329C6.34531 4.64057 7.02493 5.23699 7.465 6H14C14.0657 5.99988 14.1308 6.01272 14.1915 6.03777C14.2523 6.06282 14.3075 6.0996 14.354 6.146L15.854 7.646C15.9006 7.69245 15.9375 7.74762 15.9627 7.80837C15.9879 7.86911 16.0009 7.93424 16.0009 8C16.0009 8.06577 15.9879 8.13089 15.9627 8.19164C15.9375 8.25238 15.9006 8.30756 15.854 8.354L14.354 9.854C14.3076 9.90057 14.2524 9.93751 14.1916 9.96271C14.1309 9.98792 14.0658 10.0009 14 10.0009C13.9342 10.0009 13.8691 9.98792 13.8084 9.96271C13.7476 9.93751 13.6924 9.90057 13.646 9.854L13 9.207L12.354 9.854C12.3076 9.90057 12.2524 9.93751 12.1916 9.96271C12.1309 9.98792 12.0658 10.0009 12 10.0009C11.9342 10.0009 11.8691 9.98792 11.8084 9.96271C11.7476 9.93751 11.6924 9.90057 11.646 9.854L11 9.207L10.354 9.854C10.3076 9.90057 10.2524 9.93751 10.1916 9.96271C10.1309 9.98792 10.0658 10.0009 10 10.0009C9.93423 10.0009 9.86911 9.98792 9.80837 9.96271C9.74762 9.93751 9.69245 9.90057 9.646 9.854L9 9.207L8.354 9.854C8.30748 9.9004 8.25227 9.93718 8.19153 9.96223C8.13079 9.98729 8.06571 10.0001 8 10H7.465C7.02493 10.763 6.34531 11.3594 5.53162 11.6967C4.71793 12.034 3.81566 12.0932 2.96484 11.8653C2.11402 11.6373 1.36224 11.1349 0.826149 10.436C0.290063 9.73713 -0.000342641 8.88083 3.03393e-07 8ZM4 5C3.46314 5.00021 2.93617 5.14447 2.47407 5.41774C2.01197 5.69102 1.63166 6.08329 1.37283 6.55363C1.114 7.02398 0.98612 7.55516 1.00254 8.09177C1.01896 8.62838 1.17908 9.15075 1.46619 9.60438C1.7533 10.058 2.15688 10.4263 2.63483 10.6708C3.11278 10.9153 3.64758 11.0271 4.18345 10.9945C4.71932 10.9618 5.23661 10.786 5.68137 10.4853C6.12612 10.1846 6.48205 9.77012 6.712 9.285C6.7526 9.19976 6.8165 9.12776 6.89631 9.07732C6.97613 9.02689 7.06859 9.00008 7.163 9H7.793L8.646 8.146C8.69245 8.09944 8.74762 8.0625 8.80837 8.03729C8.86911 8.01208 8.93423 7.99911 9 7.99911C9.06577 7.99911 9.13089 8.01208 9.19163 8.03729C9.25238 8.0625 9.30755 8.09944 9.354 8.146L10 8.793L10.646 8.146C10.6924 8.09944 10.7476 8.0625 10.8084 8.03729C10.8691 8.01208 10.9342 7.99911 11 7.99911C11.0658 7.99911 11.1309 8.01208 11.1916 8.03729C11.2524 8.0625 11.3076 8.09944 11.354 8.146L12 8.793L12.646 8.146C12.6924 8.09944 12.7476 8.0625 12.8084 8.03729C12.8691 8.01208 12.9342 7.99911 13 7.99911C13.0658 7.99911 13.1309 8.01208 13.1916 8.03729C13.2524 8.0625 13.3076 8.09944 13.354 8.146L14 8.793L14.793 8L13.793 7H7.163C7.06859 6.99992 6.97613 6.97312 6.89631 6.92268C6.8165 6.87224 6.7526 6.80024 6.712 6.715C6.46869 6.20171 6.08466 5.76805 5.60456 5.46445C5.12446 5.16085 4.56804 4.99979 4 5Z" fill="#515151"/>
<path d="M4 8C4 8.26522 3.89464 8.51957 3.70711 8.70711C3.51957 8.89464 3.26522 9 3 9C2.73478 9 2.48043 8.89464 2.29289 8.70711C2.10536 8.51957 2 8.26522 2 8C2 7.73478 2.10536 7.48043 2.29289 7.29289C2.48043 7.10536 2.73478 7 3 7C3.26522 7 3.51957 7.10536 3.70711 7.29289C3.89464 7.48043 4 7.73478 4 8Z" fill="#515151"/>
</g>
<defs>
<clipPath id="clip0_83_6560">
<rect width="16" height="16" fill="white"/>
</clipPath>
</defs>
</svg>
