<svg width="30" height="20" viewBox="0 0 30 20" fill="none" xmlns="http://www.w3.org/2000/svg">
<path d="M6.09375 15.625C5.81562 15.625 5.54374 15.6992 5.31248 15.8381C5.08122 15.9771 4.90098 16.1746 4.79454 16.4056C4.68811 16.6367 4.66026 16.8909 4.71452 17.1362C4.76878 17.3815 4.90271 17.6068 5.09938 17.7837C5.29605 17.9605 5.54662 18.081 5.8194 18.1298C6.09219 18.1786 6.37494 18.1535 6.6319 18.0578C6.88886 17.9621 7.10848 17.8 7.263 17.5921C7.41752 17.3841 7.5 17.1396 7.5 16.8895C7.49958 16.5543 7.35129 16.2329 7.08766 15.9958C6.82402 15.7587 6.46658 15.6254 6.09375 15.625ZM6.09375 17.311C6.00104 17.311 5.91041 17.2863 5.83333 17.24C5.75624 17.1937 5.69616 17.1279 5.66068 17.0508C5.6252 16.9738 5.61592 16.8891 5.63401 16.8073C5.65209 16.7255 5.69674 16.6504 5.76229 16.5915C5.82785 16.5325 5.91137 16.4924 6.0023 16.4761C6.09323 16.4599 6.18748 16.4682 6.27313 16.5001C6.35879 16.532 6.43199 16.586 6.4835 16.6554C6.53501 16.7247 6.5625 16.8062 6.5625 16.8895C6.56236 17.0013 6.51293 17.1084 6.42505 17.1875C6.33717 17.2665 6.21803 17.3109 6.09375 17.311V17.311Z" fill="#D94923"/>
<path d="M23.9063 15.625C23.6281 15.625 23.3562 15.6992 23.125 15.8381C22.8937 15.9771 22.7135 16.1746 22.607 16.4056C22.5006 16.6367 22.4728 16.8909 22.527 17.1362C22.5813 17.3815 22.7152 17.6068 22.9119 17.7837C23.1086 17.9605 23.3591 18.081 23.6319 18.1298C23.9047 18.1786 24.1874 18.1535 24.4444 18.0578C24.7014 17.9621 24.921 17.8 25.0755 17.5921C25.23 17.3841 25.3125 17.1396 25.3125 16.8895C25.3121 16.5543 25.1638 16.2329 24.9002 15.9958C24.6365 15.7587 24.2791 15.6254 23.9063 15.625V15.625ZM23.9063 17.311C23.8135 17.311 23.7229 17.2863 23.6458 17.24C23.5687 17.1937 23.5087 17.1279 23.4732 17.0508C23.4377 16.9738 23.4284 16.8891 23.4465 16.8073C23.4646 16.7255 23.5092 16.6504 23.5748 16.5915C23.6404 16.5325 23.7239 16.4924 23.8148 16.4761C23.9057 16.4599 24 16.4682 24.0856 16.5001C24.1713 16.532 24.2445 16.586 24.296 16.6554C24.3475 16.7247 24.375 16.8062 24.375 16.8895C24.3749 17.0013 24.3254 17.1084 24.2376 17.1875C24.1497 17.2665 24.0305 17.3109 23.9063 17.311V17.311Z" fill="#D94923"/>
<path d="M29.4568 9.91719L25.2381 4.01603C25.1956 3.95669 25.1372 3.90789 25.0684 3.8741C24.9995 3.84032 24.9222 3.82263 24.8438 3.82266H19.2188V1.50434C19.2183 1.1132 19.0453 0.73821 18.7377 0.461633C18.4301 0.185056 18.0131 0.0294851 17.5781 0.0290527H2.10938C1.6744 0.0294851 1.25738 0.185056 0.949809 0.461633C0.642236 0.73821 0.469231 1.1132 0.46875 1.50434V16.8895C0.46875 17.0013 0.518136 17.1085 0.606044 17.1876C0.693951 17.2666 0.81318 17.311 0.9375 17.311H2.84648C2.95916 18.0132 3.34946 18.6554 3.94585 19.1198C4.54224 19.5843 5.30479 19.8399 6.09375 19.8399C6.88271 19.8399 7.64526 19.5843 8.24165 19.1198C8.83804 18.6554 9.22834 18.0132 9.34102 17.311H20.659C20.7717 18.0132 21.162 18.6554 21.7583 19.1198C22.3547 19.5843 23.1173 19.8399 23.9062 19.8399C24.6952 19.8399 25.4578 19.5843 26.0542 19.1198C26.6505 18.6554 27.0408 18.0132 27.1535 17.311H29.0625C29.1868 17.311 29.306 17.2666 29.394 17.1876C29.4819 17.1085 29.5312 17.0013 29.5312 16.8895V10.1453C29.5312 10.0644 29.5054 9.98526 29.4568 9.91719V9.91719ZM6.09375 18.9971C5.6302 18.9971 5.17706 18.8735 4.79163 18.6419C4.4062 18.4103 4.1058 18.0812 3.92841 17.696C3.75101 17.3109 3.7046 16.8872 3.79503 16.4784C3.88547 16.0695 4.10869 15.694 4.43647 15.3992C4.76425 15.1045 5.18186 14.9038 5.63651 14.8225C6.09115 14.7411 6.5624 14.7829 6.99066 14.9424C7.41893 15.1019 7.78497 15.372 8.04251 15.7186C8.30004 16.0652 8.4375 16.4727 8.4375 16.8895C8.43688 17.4483 8.18975 17.984 7.75035 18.3792C7.31094 18.7743 6.71516 18.9965 6.09375 18.9971V18.9971ZM18.2812 16.468H9.34102C9.22834 15.7658 8.83804 15.1237 8.24165 14.6592C7.64526 14.1947 6.88271 13.9391 6.09375 13.9391C5.30479 13.9391 4.54224 14.1947 3.94585 14.6592C3.34946 15.1237 2.95916 15.7658 2.84648 16.468H1.40625V12.2529H18.2812V16.468ZM18.2812 11.4099H1.40625V1.50434C1.40641 1.3367 1.48053 1.17596 1.61236 1.05742C1.74419 0.938874 1.92294 0.872216 2.10938 0.872076H17.5781C17.7646 0.872216 17.9433 0.938874 18.0751 1.05742C18.207 1.17596 18.2811 1.3367 18.2812 1.50434V11.4099ZM25.4918 5.93022L28.2041 9.72382H21.5625V5.93022H25.4918ZM23.9062 18.9971C23.4427 18.9971 22.9896 18.8735 22.6041 18.6419C22.2187 18.4103 21.9183 18.0812 21.7409 17.696C21.5635 17.3109 21.5171 16.8872 21.6075 16.4784C21.698 16.0695 21.9212 15.694 22.249 15.3992C22.5767 15.1045 22.9944 14.9038 23.449 14.8225C23.9036 14.7411 24.3749 14.7829 24.8032 14.9424C25.2314 15.1019 25.5975 15.372 25.855 15.7186C26.1125 16.0652 26.25 16.4727 26.25 16.8895C26.2494 17.4483 26.0023 17.984 25.5628 18.3792C25.1234 18.7743 24.5277 18.9965 23.9062 18.9971V18.9971ZM28.5938 13.0959H27.6562C27.5319 13.0959 27.4127 13.0515 27.3248 12.9725C27.2369 12.8934 27.1875 12.7862 27.1875 12.6744C27.1875 12.5626 27.2369 12.4554 27.3248 12.3763C27.4127 12.2973 27.5319 12.2529 27.6562 12.2529H28.5938V13.0959ZM28.5938 11.4099H27.6562C27.2833 11.4099 26.9256 11.5431 26.6619 11.7802C26.3982 12.0174 26.25 12.339 26.25 12.6744C26.25 13.0098 26.3982 13.3314 26.6619 13.5686C26.9256 13.8057 27.2833 13.9389 27.6562 13.9389H28.5938V16.468H27.1535C27.0408 15.7658 26.6505 15.1237 26.0542 14.6592C25.4578 14.1947 24.6952 13.9391 23.9062 13.9391C23.1173 13.9391 22.3547 14.1947 21.7583 14.6592C21.162 15.1237 20.7717 15.7658 20.659 16.468H19.2188V4.66568H24.5877L24.8895 5.08719H21.0938C20.9694 5.08719 20.8502 5.1316 20.7623 5.21065C20.6744 5.2897 20.625 5.39691 20.625 5.5087V10.1453C20.625 10.2571 20.6744 10.3643 20.7623 10.4434C20.8502 10.5224 20.9694 10.5668 21.0938 10.5668H28.5938V11.4099Z" fill="#D94923"/>
<path d="M22.5 11.4099H21.0938C20.9694 11.4099 20.8502 11.4543 20.7623 11.5333C20.6744 11.6124 20.625 11.7196 20.625 11.8314C20.625 11.9432 20.6744 12.0504 20.7623 12.1294C20.8502 12.2085 20.9694 12.2529 21.0938 12.2529H22.5C22.6243 12.2529 22.7435 12.2085 22.8315 12.1294C22.9194 12.0504 22.9688 11.9432 22.9688 11.8314C22.9688 11.7196 22.9194 11.6124 22.8315 11.5333C22.7435 11.4543 22.6243 11.4099 22.5 11.4099Z" fill="#D94923"/>
<path d="M12.6562 13.9389H16.4062C16.5306 13.9389 16.6498 13.8945 16.7377 13.8155C16.8256 13.7364 16.875 13.6292 16.875 13.5174C16.875 13.4056 16.8256 13.2984 16.7377 13.2193C16.6498 13.1403 16.5306 13.0959 16.4062 13.0959H12.6562C12.5319 13.0959 12.4127 13.1403 12.3248 13.2193C12.2369 13.2984 12.1875 13.4056 12.1875 13.5174C12.1875 13.6292 12.2369 13.7364 12.3248 13.8155C12.4127 13.8945 12.5319 13.9389 12.6562 13.9389Z" fill="#D94923"/>
<path d="M16.4062 14.3605H15C14.8757 14.3605 14.7565 14.4049 14.6685 14.4839C14.5806 14.563 14.5312 14.6702 14.5312 14.782C14.5312 14.8938 14.5806 15.001 14.6685 15.08C14.7565 15.1591 14.8757 15.2035 15 15.2035H16.4062C16.5306 15.2035 16.6498 15.1591 16.7377 15.08C16.8256 15.001 16.875 14.8938 16.875 14.782C16.875 14.6702 16.8256 14.563 16.7377 14.4839C16.6498 14.4049 16.5306 14.3605 16.4062 14.3605Z" fill="#D94923"/>
<path d="M6 5.66667L8.82353 9C9.76471 7.61111 12.1176 4.66667 14 4" stroke="#D94923"/>
</svg>
