<svg width="30" height="30" viewBox="0 0 30 30" fill="none" xmlns="http://www.w3.org/2000/svg">
<g clip-path="url(#clip0_43_239)">
<path d="M21.2543 1.39441C19.8555 1.39441 18.5186 1.71507 17.2808 2.34754C16.4382 2.778 15.6641 3.34991 15 4.02847C14.3358 3.34991 13.5618 2.778 12.7192 2.34754C11.4813 1.71507 10.1444 1.39441 8.74565 1.39441C3.92332 1.39441 0 5.31773 0 10.1401C0 13.5557 1.8039 17.1834 5.36152 20.9224C8.33196 24.0443 11.9687 26.6467 14.4964 28.2802L15 28.6056L15.5036 28.2802C18.0313 26.6468 21.668 24.0443 24.6385 20.9224C28.1962 17.1834 30 13.5557 30 10.1401C30 5.31773 26.0767 1.39441 21.2543 1.39441Z" fill="#D94923"/>
</g>
<defs>
<clipPath id="clip0_43_239">
<rect width="30" height="30" fill="white"/>
</clipPath>
</defs>
</svg>
