<svg width="30" height="30" viewBox="0 0 30 30" fill="none" xmlns="http://www.w3.org/2000/svg">
<g clip-path="url(#clip0_42_201)">
<path d="M21.2543 1.39441C19.8555 1.39441 18.5186 1.71507 17.2808 2.34754C16.4382 2.778 15.6641 3.34991 15 4.02847C14.3358 3.34991 13.5618 2.778 12.7192 2.34754C11.4813 1.71507 10.1444 1.39441 8.74565 1.39441C3.92332 1.39441 0 5.31773 0 10.1401C0 13.5557 1.8039 17.1834 5.36152 20.9224C8.33196 24.0443 11.9687 26.6467 14.4964 28.2802L15 28.6056L15.5036 28.2802C18.0313 26.6468 21.668 24.0443 24.6385 20.9224C28.1962 17.1834 30 13.5557 30 10.1401C30 5.31773 26.0767 1.39441 21.2543 1.39441ZM23.2942 19.6432C20.6394 22.4333 17.4057 24.8052 15 26.3927C12.5942 24.8052 9.36055 22.4333 6.70589 19.6432C3.48748 16.2609 1.85567 13.0635 1.85567 10.1401C1.85567 6.34094 4.94653 3.25008 8.74571 3.25008C10.933 3.25008 12.9422 4.2548 14.2582 6.00655L15 6.99408L15.7418 6.00655C17.0577 4.2548 19.067 3.25008 21.2543 3.25008C25.0535 3.25008 28.1443 6.34094 28.1443 10.1401C28.1443 13.0635 26.5124 16.2609 23.2942 19.6432Z" fill="#C6C6C9"/>
</g>
<defs>
<clipPath id="clip0_42_201">
<rect width="30" height="30" fill="white"/>
</clipPath>
</defs>
</svg>
