<svg width="30" height="30" viewBox="0 0 30 30" fill="none" xmlns="http://www.w3.org/2000/svg">
<g clip-path="url(#clip0_64_289)">
<path d="M29.7998 14.4403C27.0732 11.1183 21.3004 7.24158 15 7.24158C8.67703 7.24158 2.90403 11.1447 0.200206 14.4403C-0.0667353 14.7657 -0.0667353 15.2343 0.200206 15.5596C2.9915 18.962 8.77779 22.7585 15 22.7585C21.4434 22.7585 27.1916 18.7375 29.7998 15.5597C30.0668 15.2343 30.0668 14.7657 29.7998 14.4403ZM20.9937 15C20.9937 18.3049 18.305 20.9938 15 20.9938C11.6949 20.9938 9.00621 18.3048 9.00621 15C9.00621 11.695 11.695 9.00622 15 9.00622C18.3053 9.00628 20.9937 11.6954 20.9937 15ZM2.07426 15.0002C3.06738 13.968 5.46197 11.7405 8.82344 10.3108C6.71391 13.0826 6.71309 16.915 8.82244 19.6879C6.26662 18.6047 3.89238 16.8933 2.07426 15.0002ZM21.1766 19.6892C23.2861 16.9173 23.2869 13.0849 21.1776 10.312C23.7333 11.3953 26.1076 13.1068 27.9258 14.9997C26.9327 16.032 24.5381 18.2595 21.1766 19.6892Z" fill="#C6C6C9"/>
<path d="M12 15C12 16.6542 13.3458 18 15 18C16.6542 18 18 16.6542 18 15C18 13.3458 16.6542 12 15 12C13.3458 12 12 13.3458 12 15ZM16.2353 15C16.2353 15.6812 15.6811 16.2353 15 16.2353C14.3188 16.2353 13.7647 15.6812 13.7647 15C13.7647 14.3188 14.3188 13.7647 15 13.7647C15.6811 13.7647 16.2353 14.3188 16.2353 15Z" fill="#C6C6C9"/>
<path d="M15 3.82353C15.4873 3.82353 15.8824 3.42847 15.8824 2.94118V0.882353C15.8824 0.395059 15.4873 0 15 0C14.5127 0 14.1177 0.395059 14.1177 0.882353V2.94118C14.1177 3.42847 14.5127 3.82353 15 3.82353Z" fill="#C6C6C9"/>
<path d="M20.2648 5.00366C20.6879 5.24495 21.2269 5.09784 21.4684 4.67431L22.6426 2.61548C22.884 2.19219 22.7367 1.65336 22.3133 1.41189C21.8899 1.17048 21.3512 1.31783 21.1097 1.74125L19.9355 3.80007C19.6941 4.22331 19.8415 4.76219 20.2648 5.00366Z" fill="#C6C6C9"/>
<path d="M8.53174 4.67429C8.77315 5.09759 9.31197 5.245 9.73532 5.00359C10.1586 4.76218 10.306 4.22329 10.0646 3.8L8.89038 1.74118C8.64897 1.31788 8.11003 1.17047 7.6868 1.41188C7.2635 1.65329 7.11609 2.19218 7.3575 2.61547L8.53174 4.67429Z" fill="#C6C6C9"/>
<path d="M15 26.1765C14.5127 26.1765 14.1177 26.5715 14.1177 27.0588V29.1176C14.1177 29.6049 14.5127 30 15 30C15.4873 30 15.8824 29.6049 15.8824 29.1176V27.0588C15.8824 26.5715 15.4873 26.1765 15 26.1765Z" fill="#C6C6C9"/>
<path d="M9.73533 24.9964C9.31203 24.755 8.77321 24.9024 8.53174 25.3257L7.3575 27.3845C7.11609 27.8078 7.2635 28.3467 7.6868 28.5881C8.11015 28.8295 8.64897 28.682 8.89039 28.2588L10.0646 26.2C10.3061 25.7767 10.1586 25.2378 9.73533 24.9964V24.9964Z" fill="#C6C6C9"/>
<path d="M21.4684 25.3257C21.227 24.9024 20.688 24.7551 20.2648 24.9964C19.8415 25.2378 19.6941 25.7767 19.9355 26.2L21.1097 28.2588C21.3511 28.6821 21.8899 28.8295 22.3133 28.5881C22.7366 28.3467 22.884 27.8078 22.6426 27.3845L21.4684 25.3257Z" fill="#C6C6C9"/>
</g>
<defs>
<clipPath id="clip0_64_289">
<rect width="30" height="30" fill="white"/>
</clipPath>
</defs>
</svg>
