<svg width="108" height="107" viewBox="0 0 108 107" fill="none" xmlns="http://www.w3.org/2000/svg">
<path fill-rule="evenodd" clip-rule="evenodd" d="M108 102.775V53.4937V4.20432C108 1.31595 106.669 0 103.756 0H71.1765C68.3284 0 67 1.32646 67 4.17279V102.84C67 105.676 68.3347 107 71.1891 107H103.758C106.672 107 108 105.678 108 102.775ZM104.427 6.10888V53.6051L104.441 100.788C104.441 102.955 103.962 103.433 101.791 103.433H73.1061C71.0756 103.433 70.5733 102.928 70.5733 100.891V6.10678C70.5733 4.06768 71.0735 3.56737 73.1082 3.56737H101.883C103.912 3.56737 104.427 4.08029 104.427 6.10888Z" fill="#D94923"/>
<path d="M50.4391 78.4579V103.437H51.6143C54.6535 103.437 57.6941 103.437 60.7361 103.437C62.1383 103.437 63.0038 104.141 62.9889 105.24C62.9741 106.34 62.1404 107 60.7997 107C46.6574 107 32.5152 107 18.3729 107C17.0365 107 16.2007 106.308 16.1879 105.232C16.1752 104.156 17.0428 103.437 18.4557 103.437C27.436 103.437 36.4163 103.437 45.3967 103.437H46.7373V78.4579H4.45481C1.22613 78.4579 0 77.226 0 73.9991V4.31823C0 1.31624 1.30674 0.0065403 4.29995 0.0065403H60.4009C60.683 0.0065403 60.9673 -0.00817537 61.2494 0.0065403C62.2109 0.0550407 62.9702 0.833226 62.9868 1.78714C62.9653 2.74165 62.1993 3.51544 61.2367 3.55512C60.9206 3.58245 60.6003 3.55512 60.2821 3.55512H6.3025C4.056 3.58035 3.60628 4.03443 3.60628 6.29644V72.3067C3.60628 74.4279 4.07509 74.8925 6.2134 74.8925H60.0954C60.5538 74.8737 61.013 74.8941 61.4679 74.9535C62.3842 75.0878 63.0468 75.8911 62.9974 76.8076C62.9497 77.7291 62.1784 78.45 61.2473 78.4432C58.7738 78.4789 56.2982 78.4621 53.8226 78.4642L50.4391 78.4579Z" fill="#D94923"/>
<path fill-rule="evenodd" clip-rule="evenodd" d="M98.7489 8.00942H87.4936C83.7065 7.99843 79.9186 7.99706 76.13 8.0053C74.6435 8.01766 74.0064 8.62344 74.0064 10.0781C73.9979 13.3405 73.9979 16.6016 74.0064 19.8612C74.0106 21.3592 74.6541 21.9918 76.2022 21.9918C83.7383 22.0027 91.2751 22.0027 98.8126 21.9918C100.363 21.9897 101 21.3489 101 19.8468V10.1626C101 8.59253 100.388 8.00942 98.7489 8.00942ZM84.6328 11.515C85.5865 11.5136 86.5402 11.5122 87.4936 11.5122H87.4979C88.2597 11.5122 89.0213 11.5108 89.7828 11.5095C91.8126 11.5058 93.841 11.5021 95.8672 11.5246C97.1371 11.539 97.3601 11.7574 97.3834 12.9669C97.3963 13.5734 97.3929 14.1803 97.3895 14.787C97.385 15.5861 97.3806 16.385 97.4132 17.1826C97.4514 18.1387 96.9714 18.4828 96.088 18.489C95.7932 18.491 95.4986 18.4938 95.2041 18.4965C94.6161 18.502 94.0284 18.5075 93.4398 18.5075H79.2369C77.8034 18.5096 77.6251 18.353 77.6102 17.0034C77.6024 16.4308 77.6063 15.858 77.6101 15.2852C77.6157 14.4521 77.6213 13.6191 77.5911 12.7876C77.555 11.8398 77.9797 11.5122 78.9099 11.5122C80.817 11.5205 82.725 11.5177 84.6328 11.515Z" fill="#D94923"/>
<path d="M87.4982 29C91.351 29 95.2038 29 99.0566 29C100.259 29 101 29.5989 101 30.4751C101 31.3054 100.288 31.9007 99.1692 31.9837C98.8527 32.0067 98.532 31.9961 98.2155 31.9961H76.5748C76.3284 31.9961 76.0778 32.0049 75.8336 31.9961C74.6718 31.9113 73.9496 31.2771 74.0027 30.4062C74.0537 29.56 74.7631 29.0194 75.9313 29.0124C78.6924 28.9947 81.4535 29.0124 84.2018 29.0124L87.4982 29Z" fill="#D94923"/>
<path d="M87.4456 38.9901C83.8049 38.9901 80.1641 38.9901 76.5234 38.9901C76.101 39.0048 75.6783 38.9692 75.2681 38.8845C74.3759 38.6663 73.932 38.1278 74.0085 37.3606C74.0849 36.5934 74.6244 36.1289 75.5527 36.0321C75.9056 36.0038 76.2604 35.9949 76.6147 36.0057H98.3486C98.7372 35.9915 99.1265 36.0039 99.5126 36.0426C100.308 36.1463 100.918 36.684 100.992 37.3484C101.067 38.0128 100.588 38.6345 99.8291 38.8581C99.3897 38.9656 98.9318 39.0126 98.474 38.9971C94.7971 38.9954 91.1224 38.9901 87.4456 38.9901Z" fill="#D94923"/>
<path d="M85.0006 78.4364C85.0357 77.0599 86.1773 75.9708 87.5539 76.0006C88.9306 76.0304 90.0241 77.1677 89.9996 78.5444C89.9751 79.9212 88.8419 81.0189 87.4651 80.9998C86.7978 80.9883 86.1625 80.7114 85.7 80.2303C85.2375 79.7492 84.9858 79.1036 85.0006 78.4364Z" fill="#D94923"/>
</svg>
