<svg width="94" height="91" viewBox="0 0 94 91" fill="none" xmlns="http://www.w3.org/2000/svg">
<path fill-rule="evenodd" clip-rule="evenodd" d="M93.9981 46.7096C93.9336 46.7617 93.9336 46.8789 93.9336 46.8789L93.869 46.996L93.7527 47.1653L93.6753 47.2955C89.6457 52.2069 85.1132 56.6759 80.1531 60.6282C69.1882 69.3778 57.9262 74 47.5941 74C20.0978 74 0.983416 48.4022 0.182679 47.3085V47.2304L0.0793579 47.0481L0.00186718 46.8789V46.6966C-0.00100448 46.6359 -0.00100448 46.575 0.00186718 46.5143V46.332V46.1497V45.9544V45.7721C-0.00145225 45.7071 -0.00145225 45.6419 0.00186718 45.5768V45.4076L0.0793579 45.2383L0.182679 45.0691V44.9779C0.983416 43.8842 20.0978 18 47.5941 18C57.9391 18 69.1882 22.6743 80.1402 31.541C85.1012 35.5214 89.6335 40.0163 93.6623 44.9519L93.7398 45.0691L93.8561 45.2513L93.9336 45.4206C93.9981 45.4857 93.9981 45.6029 93.9981 45.6029C94.001 45.6636 94.001 45.7244 93.9981 45.7852V45.9674V46.1497V46.345V46.5143C94.0015 46.5794 94.0015 46.6445 93.9981 46.7096ZM4.2122 46.1237C8.20297 51.0584 25.2768 70.0809 47.5941 70.0809C67.6125 70.0809 85.3063 51.2016 89.5682 46.1367C85.3063 41.0718 67.6125 21.9061 47.5941 21.9061C25.238 21.9061 8.20297 41.15 4.2122 46.1237Z" fill="#DA4816"/>
<path fill-rule="evenodd" clip-rule="evenodd" d="M27 45C27 33.9543 35.9543 25 47 25C58.0398 25.0142 66.9858 33.9602 67 45C67 56.0457 58.0457 65 47 65C35.9543 65 27 56.0457 27 45ZM30.871 45C30.871 53.9078 38.0922 61.129 47 61.129C55.9019 61.1148 63.1148 53.9019 63.129 45C63.129 36.0922 55.9078 28.871 47 28.871C38.0922 28.871 30.871 36.0922 30.871 45Z" fill="#DA4816"/>
<path d="M2.94118 22C4.01326 22 4.88235 21.1309 4.88235 20.0588V3.88235H21.0588C22.1309 3.88235 23 3.01326 23 1.94118C23 0.869094 22.1309 0 21.0588 0H2.94118C1.86909 0 1 0.869094 1 1.94118V20.0588C1 21.1309 1.86909 22 2.94118 22Z" fill="#DA4816"/>
<path d="M72.9412 3.88235H89.1176V20.0588C89.1176 21.1309 89.9867 22 91.0588 22C92.1309 22 93 21.1309 93 20.0588V1.94118C93 0.869094 92.1309 0 91.0588 0H72.9412C71.8691 0 71 0.869094 71 1.94118C71 3.01326 71.8691 3.88235 72.9412 3.88235Z" fill="#DA4816"/>
<path d="M91.0588 69C89.9867 69 89.1176 69.8691 89.1176 70.9412V87.1176H72.9412C71.8691 87.1176 71 87.9867 71 89.0588C71 90.1309 71.8691 91 72.9412 91H91.0588C92.1309 91 93 90.1309 93 89.0588V70.9412C93 69.8691 92.1309 69 91.0588 69Z" fill="#DA4816"/>
<path d="M21.0588 87.1176H4.88235V70.9412C4.88235 69.8691 4.01326 69 2.94118 69C1.86909 69 1 69.8691 1 70.9412V89.0588C1 90.1309 1.86909 91 2.94118 91H21.0588C22.1309 91 23 90.1309 23 89.0588C23 87.9867 22.1309 87.1176 21.0588 87.1176Z" fill="#DA4816"/>
<path fill-rule="evenodd" clip-rule="evenodd" d="M37 45.5C37 40.2533 41.2533 36 46.5 36C51.7438 36.007 55.993 40.2562 56 45.5C56 50.7467 51.7467 55 46.5 55C41.2533 55 37 50.7467 37 45.5ZM40.8 45.5C40.8 48.648 43.352 51.2 46.5 51.2C49.648 51.2 52.2 48.648 52.2 45.5C52.2 42.352 49.648 39.8 46.5 39.8C43.352 39.8 40.8 42.352 40.8 45.5Z" fill="#DA4816"/>
</svg>
