<svg width="144" height="93" viewBox="0 0 144 93" fill="none" xmlns="http://www.w3.org/2000/svg">
<path fill-rule="evenodd" clip-rule="evenodd" d="M133.57 75.8423V10.7779C133.563 5.37686 129.198 1.00179 123.816 1H20.184C14.8008 0.999997 10.4353 5.37612 10.43 10.7779V75.8423H4.3637C3.47018 75.8432 2.61364 76.2004 1.98274 76.8353C1.35183 77.4702 0.99831 78.3307 1.00003 79.2273V80.7199C1.00539 86.9462 6.03322 91.9928 12.2382 92H131.765C137.969 91.991 142.995 86.9449 143 80.7199V79.2338C143.003 78.3367 142.651 77.475 142.021 76.8387C141.39 76.2025 140.534 75.844 139.64 75.8423H133.57ZM13.3756 10.7779C13.3756 7.00655 16.4224 3.94929 20.1807 3.94929H123.816C127.574 3.94929 130.621 7.00655 130.621 10.7779V75.8423H13.3756V10.7779ZM131.752 89.0507C136.335 89.0453 140.048 85.3181 140.051 80.7199L140.064 79.2338C140.064 78.9986 139.874 78.8079 139.64 78.8079H4.37666C4.14168 78.8078 3.95069 78.998 3.94891 79.2338V80.7199C3.95425 85.3136 7.66027 89.0382 12.2382 89.0507H131.752Z" fill="#D94923"/>
<path d="M133.57 10.7779L134.07 10.7779L134.07 10.7772L133.57 10.7779ZM133.57 75.8423H133.07V76.3423H133.57V75.8423ZM123.816 1L123.816 0.5H123.816V1ZM20.1839 1L20.1839 1.5H20.1839V1ZM10.4299 10.7779L9.92994 10.7774V10.7779H10.4299ZM10.4299 75.8423V76.3423H10.9299V75.8423H10.4299ZM4.36367 75.8423L4.36367 75.3423L4.36319 75.3423L4.36367 75.8423ZM1.98271 76.8353L2.33738 77.1877L2.33738 77.1877L1.98271 76.8353ZM1.00001 79.2273L1.50001 79.2273L1.50001 79.2264L1.00001 79.2273ZM1.00001 80.7199L0.500006 80.7199L0.500006 80.7203L1.00001 80.7199ZM12.2382 92L12.2376 92.5H12.2382V92ZM131.765 92V92.5L131.766 92.5L131.765 92ZM143 80.7199L143.5 80.7203V80.7199H143ZM143 79.2338L142.5 79.2319V79.2338H143ZM142.021 76.8387L141.666 77.1907L141.666 77.1907L142.021 76.8387ZM139.64 75.8423L139.64 75.3423H139.64V75.8423ZM130.621 75.8423V76.3423H131.121V75.8423H130.621ZM13.3756 75.8423H12.8756V76.3423H13.3756V75.8423ZM140.051 80.7199L139.551 80.7155L139.551 80.7195L140.051 80.7199ZM131.752 89.0507L131.752 89.5507L131.753 89.5507L131.752 89.0507ZM140.064 79.2338L140.564 79.2382V79.2338H140.064ZM4.37664 78.8079L4.37662 79.3079H4.37664V78.8079ZM3.94889 79.2338L3.44889 79.2301V79.2338H3.94889ZM3.94889 80.7199L3.44889 80.7199L3.44889 80.7204L3.94889 80.7199ZM12.2382 89.0507L12.2368 89.5507H12.2382V89.0507ZM133.07 10.7779V75.8423H134.07V10.7779H133.07ZM123.816 1.5C128.921 1.5017 133.063 5.65172 133.07 10.7785L134.07 10.7772C134.062 5.102 129.476 0.501881 123.816 0.5L123.816 1.5ZM20.1839 1.5H123.816V0.5H20.1839V1.5ZM10.9299 10.7784C10.935 5.65094 15.0783 1.5 20.1839 1.5L20.1839 0.5C14.5232 0.499997 9.93558 5.10129 9.92994 10.7774L10.9299 10.7784ZM10.9299 75.8423V10.7779H9.92994V75.8423H10.9299ZM4.36367 76.3423H10.4299V75.3423H4.36367V76.3423ZM2.33738 77.1877C2.87473 76.647 3.60388 76.343 4.36416 76.3423L4.36319 75.3423C3.33642 75.3433 2.3525 75.7538 1.62804 76.4829L2.33738 77.1877ZM1.50001 79.2264C1.49854 78.4619 1.79998 77.7285 2.33738 77.1877L1.62804 76.4829C0.903639 77.2119 0.498033 78.1995 0.500007 79.2283L1.50001 79.2264ZM1.50001 80.7199V79.2273H0.500006V80.7199H1.50001ZM12.2387 91.5C6.31114 91.4931 1.50513 86.6717 1.50001 80.7194L0.500006 80.7203C0.5056 87.2208 5.75525 92.4925 12.2376 92.5L12.2387 91.5ZM131.765 91.5H12.2382V92.5H131.765V91.5ZM142.5 80.7194C142.495 86.6704 137.691 91.4914 131.764 91.5L131.766 92.5C138.247 92.4906 143.494 87.2195 143.5 80.7203L142.5 80.7194ZM142.5 79.2338V80.7199H143.5V79.2338H142.5ZM141.666 77.1907C142.202 77.7326 142.503 78.467 142.5 79.2319L143.5 79.2357C143.504 78.2064 143.1 77.2173 142.376 76.4868L141.666 77.1907ZM139.639 76.3423C140.399 76.3438 141.129 76.6488 141.666 77.1907L142.376 76.4868C141.652 75.7563 140.668 75.3443 139.64 75.3423L139.639 76.3423ZM133.57 76.3423H139.64V75.3423H133.57V76.3423ZM20.1807 3.44929C16.1446 3.44929 12.8756 6.73203 12.8756 10.7779H13.8756C13.8756 7.28106 16.7001 4.44929 20.1807 4.44929V3.44929ZM123.816 3.44929H20.1807V4.44929H123.816V3.44929ZM131.121 10.7779C131.121 6.73203 127.852 3.44929 123.816 3.44929V4.44929C127.297 4.44929 130.121 7.28106 130.121 10.7779H131.121ZM131.121 75.8423V10.7779H130.121V75.8423H131.121ZM13.3756 76.3423H130.621V75.3423H13.3756V76.3423ZM12.8756 10.7779V75.8423H13.8756V10.7779H12.8756ZM139.551 80.7195C139.548 85.0436 136.057 88.5457 131.751 88.5507L131.753 89.5507C136.612 89.545 140.547 85.5926 140.551 80.7202L139.551 80.7195ZM139.564 79.2295L139.551 80.7155L140.551 80.7242L140.564 79.2382L139.564 79.2295ZM139.64 79.3079C139.596 79.3079 139.564 79.2731 139.564 79.2338H140.564C140.564 78.724 140.152 78.3079 139.64 78.3079V79.3079ZM4.37664 79.3079H139.64V78.3079H4.37664V79.3079ZM4.44887 79.2376C4.44859 79.2749 4.41792 79.3079 4.37662 79.3079L4.37665 78.3079C3.86539 78.3078 3.45274 78.7212 3.4489 79.2301L4.44887 79.2376ZM4.44889 80.7199V79.2338H3.44889V80.7199H4.44889ZM12.2395 88.5507C7.9386 88.5389 4.45391 85.0392 4.44889 80.7193L3.44889 80.7204C3.45454 85.5879 7.38188 89.5374 12.2368 89.5507L12.2395 88.5507ZM131.752 88.5507H12.2382V89.5507H131.752V88.5507Z" fill="#D94923"/>
<path d="M78.4584 82H62.5416C61.6902 82 61 82.6716 61 83.5C61 84.3284 61.6902 85 62.5416 85H78.4584C79.3098 85 80 84.3284 80 83.5C80 82.6716 79.3098 82 78.4584 82Z" fill="#D94923"/>
</svg>
