<svg width="115" height="95" viewBox="0 0 115 95" fill="none" xmlns="http://www.w3.org/2000/svg">
<path d="M81.8784 91.3926H78.5405V84.8826H107.709C106.939 83.3468 106.939 81.811 106.939 80.2752H10.0135C6.93243 80.2752 4.23649 78.3554 4.23649 76.0517V8.0921C4.23649 6.17233 6.93243 4.25257 10.0135 4.25257H103.986C107.068 4.25257 109.764 6.17233 109.764 8.47605V66.5218C110.149 66.5218 110.534 66.5218 110.919 66.5218C112.074 66.5218 113.23 66.9058 114 67.2897V8.47605C114 3.86862 109.378 0.0290911 103.986 0.0290911H10.0135C4.62162 -0.354861 0 3.10071 0 8.0921V76.4357C0 81.0431 4.62162 84.8826 10.0135 84.8826H33.9189V91.3926H27.7297C26.5743 91.3926 25.8751 91.5444 25.8751 92.6963C25.8751 93.8481 26.5743 95 27.7297 95H81.8784C83.6707 95 84.2735 92.6963 84.2735 92.6963C84.2735 92.6963 84.3564 91.3926 81.8784 91.3926Z" fill="#DA4816"/>
<rect x="37" y="85" width="38" height="7" fill="white"/>
<path fill-rule="evenodd" clip-rule="evenodd" d="M94.8345 81.0474L105.472 81.233C105.472 81.233 108.996 80.1752 109.083 75.1781C109.17 70.181 110.379 58.2311 110.379 58.2311C110.379 58.2311 114.114 54.8103 114.057 58.159C114 61.5077 113.7 78.6071 113.7 78.6071C113.7 78.6071 112.566 86.169 102.795 84.69C93.0233 83.211 94.8345 81.0474 94.8345 81.0474Z" fill="#D94923"/>
<path fill-rule="evenodd" clip-rule="evenodd" d="M100.625 13H14.3723C13.6144 13 13 13.5409 13 14.2081V69.7919C13 70.4591 13.6144 71 14.3723 71H100.625C100.989 71.0007 101.339 70.8737 101.597 70.6471C101.855 70.4205 102 70.1128 102 69.7919V14.2081C102 13.8872 101.855 13.5795 101.597 13.3529C101.339 13.1263 100.989 12.9993 100.625 13Z" stroke="#D94923" stroke-width="4"/>
</svg>
