<svg width="101" height="94" viewBox="0 0 101 94" fill="none" xmlns="http://www.w3.org/2000/svg">
<path d="M101 41.9429V34.0571C101 33.0286 100 32 99 32C98 32 97 33.0286 97 34.0571V41.9429C97 42.9714 98 44 99 44C100 44 101 43.3143 101 41.9429Z" fill="#DA4816"/>
<path d="M72.5414 89.9142H51.8649V75.2733H95.4268C94.7444 73.9113 94.7444 72.5494 94.7444 71.1874H8.87162C6.14189 71.1874 3.75338 69.485 3.75338 67.4421V7.17601C3.75338 5.47358 6.14189 3.77115 8.87162 3.77115H92.1284C94.8581 3.77115 97.2466 5.47358 97.2466 7.5165V23.5193C97.5878 23.5193 97.9291 23.5193 98.2703 23.5193C99.2939 23.5193 100.318 23.8598 101 24.2003V7.5165C101 3.43066 96.9054 0.0257978 92.1284 0.0257978H8.87162C4.09459 -0.314688 0 2.74969 0 7.17601V67.7826C0 71.8684 4.09459 75.2733 8.87162 75.2733H47.7703V89.9142H24.5676C23.5439 89.9142 22.5203 90.9356 22.5203 91.9571C22.5203 92.9785 23.5439 94 24.5676 94H72.5414C74.1293 94 74.7309 93.8458 74.7309 91.88C74.7309 89.9142 74.7368 89.9142 72.5414 89.9142Z" fill="#DA4816"/>
<path fill-rule="evenodd" clip-rule="evenodd" d="M84.0201 71.8709L93.4444 72.0355C93.4444 72.0355 96.5666 71.0975 96.6439 66.6661C96.7211 62.2346 96.9059 51.6376 96.9059 51.6376L100.164 51.5737L99.8481 69.7069C99.8481 69.7069 98.1179 75.7419 91.0374 75.6182C83.9569 75.4945 84.0201 71.8709 84.0201 71.8709Z" fill="#D94923"/>
</svg>
