<svg width="64" height="104" viewBox="0 0 64 104" fill="none" xmlns="http://www.w3.org/2000/svg">
<path fill-rule="evenodd" clip-rule="evenodd" d="M5.69944 0.00409438H58.4193C61.5065 -0.115299 64 2.39197 64 5.4962V98.5038C64 101.608 61.3878 104.115 58.3006 103.996H5.69944C2.61224 103.996 0.118738 101.608 0 98.5038V5.4962C0 2.39197 2.61224 -0.115299 5.69944 0.00409438ZM60.5566 15.5253H3.56215V82.3857H60.5566V15.5253ZM5.69944 3.5859H58.3006C59.3692 3.46651 60.4378 4.30226 60.4378 5.4962V11.9435H3.56215V5.4962C3.68089 4.30226 4.6308 3.46651 5.69944 3.5859ZM5.69944 100.295H58.4193C59.4879 100.414 60.4378 99.5783 60.5566 98.3844V85.9675H3.56215V98.3844C3.56215 99.5783 4.6308 100.414 5.69944 100.295Z" fill="#DA4816"/>
<circle cx="33" cy="94" r="3" fill="#DA4816"/>
</svg>
