<svg width="135" height="87" viewBox="0 0 135 87" fill="none" xmlns="http://www.w3.org/2000/svg">
<path fill-rule="evenodd" clip-rule="evenodd" d="M135 50.754C135 55.714 131.463 59.864 126.78 60.801L108.776 61H100.727V58.1057H124.768C128.819 58.1057 132.11 54.8099 132.11 50.7543V26.363H2.89049V50.7543C2.89049 54.8099 6.18204 58.1057 10.2323 58.1057H34.5269V61H26.4299L8.42578 60.8372C3.64202 59.9798 0 55.7867 0 50.7543V10.2457C0 4.59463 4.58865 0 10.2323 0H124.768C130.412 0 135 4.59463 135 10.2457V50.754ZM10.2323 2.89425C6.18204 2.89425 2.89049 6.1937 2.89049 10.2457V23.4688H132.11V10.2457C132.11 6.1937 128.818 2.89425 124.768 2.89425H10.2323Z" fill="#D94923"/>
<path fill-rule="evenodd" clip-rule="evenodd" d="M32 79.4371V34H104L103.986 57.7014L103.982 60.5976L103.971 79.4407C103.971 83.6115 100.582 87 96.4228 87H39.5519C35.3893 87 32 83.6075 32 79.4371ZM101.08 79.4407L101.095 60.5976V57.7014L101.109 36.8962H34.8907V79.4371C34.8907 82.011 36.9828 84.1038 39.5519 84.1038H96.4228C98.9883 84.1038 101.08 82.011 101.08 79.4407Z" fill="#D94923"/>
<path d="M106.307 37H29.6931C28.7583 37 28 36.3285 28 35.5C28 34.6715 28.7583 34 29.6931 34H106.307C107.242 34 108 34.6715 108 35.5C108 36.3285 107.242 37 106.307 37Z" fill="#D94923"/>
<path d="M89.3175 53H44.6821C43.753 53 43 52.3352 43 51.5149V51.4851C43 50.6648 43.753 50 44.6821 50H89.3175C90.2466 50 91 50.6648 91 51.4851V51.5149C91 52.3352 90.2466 53 89.3175 53Z" fill="#D94923"/>
<path d="M89.3175 63H44.6821C43.753 63 43 62.335 43 61.5151V61.4849C43 60.6647 43.753 60 44.6821 60H89.3175C90.2466 60 91 60.6647 91 61.4849V61.5151C91 62.335 90.2466 63 89.3175 63Z" fill="#D94923"/>
<path d="M89.3175 71H44.6821C43.753 71 43 70.335 43 69.5148V69.4849C43 68.6647 43.753 68 44.6821 68H89.3175C90.2466 68 91 68.6647 91 69.4849V69.5148C91 70.335 90.2466 71 89.3175 71Z" fill="#D94923"/>
<path fill-rule="evenodd" clip-rule="evenodd" d="M113 12.5C113 16.0841 115.916 19 119.5 19C123.084 19 126 16.0841 126 12.5C126 8.91588 123.084 6 119.5 6C115.916 6 113 8.91588 113 12.5ZM116.16 12.5C116.16 10.6584 117.658 9.15956 119.5 9.15956C121.342 9.15956 122.84 10.6584 122.84 12.5C122.84 14.342 121.342 15.8404 119.5 15.8404C117.658 15.8404 116.16 14.342 116.16 12.5Z" fill="#D94923"/>
<path fill-rule="evenodd" clip-rule="evenodd" d="M100 12.5C100 16.0841 102.916 19 106.5 19C110.084 19 113 16.0841 113 12.5C113 8.91588 110.084 6 106.5 6C102.916 6 100 8.91588 100 12.5ZM103.16 12.5C103.16 10.6584 104.658 9.15956 106.5 9.15956C108.342 9.15956 109.84 10.6584 109.84 12.5C109.84 14.342 108.342 15.8404 106.5 15.8404C104.658 15.8404 103.16 14.342 103.16 12.5Z" fill="#D94923"/>
</svg>
