<svg width="91" height="108" viewBox="0 0 91 108" fill="none" xmlns="http://www.w3.org/2000/svg">
<path fill-rule="evenodd" clip-rule="evenodd" d="M90.7705 25.3125V11.5875C90.7705 10.6875 89.9672 9.9 89.0492 9.9H47.0492V1.6875C47.0492 0.7875 46.2459 0 45.3279 0C44.4098 0 43.6066 0.7875 43.6066 1.6875V9.9H1.72131C0.803279 9.9 0 10.6875 0 11.5875V25.3125V27.5625V67.95C0 68.85 0.803279 69.6375 1.72131 69.6375H28.3443L19.5082 105.975C19.2787 106.875 19.8525 107.775 20.7705 108H21.2295C22.0328 108 22.7213 107.438 22.9508 106.763L32.0164 69.6375H43.8361V96.8625C43.8361 97.7625 44.6393 98.55 45.5574 98.55C46.4754 98.55 47.2787 97.7625 47.2787 96.8625V69.6375H58.7541L68.1639 106.763C68.3934 107.55 69.082 108 69.8852 108H70.3443C71.2623 107.775 71.8361 106.875 71.6066 105.975L62.4262 69.6375H89.2787C90.1967 69.6375 91 68.85 91 67.95C91 67.95 90.7705 25.875 90.7705 25.3125ZM87.3279 13.275V24.75H3.44263V13.275H87.3279ZM3.44263 28.125V66.2625H87.3279V28.125H3.44263Z" fill="#DA4816"/>
</svg>
