<svg width="70" height="90" viewBox="0 0 70 90" fill="none" xmlns="http://www.w3.org/2000/svg">
<path d="M53.5521 20.0705H17.0847C17.0847 20.0705 13 19.4687 13 24.0034C13 28.538 13.5301 27.978 17.0847 27.978H53.5521C57.1066 27.978 56.766 25.9769 56.766 24C56.766 22.0231 58.2915 20.0705 53.5521 20.0705Z" stroke="#D94923" stroke-width="4"/>
<path d="M53.5521 34.0353H17.0847C17.0847 34.0353 13 33.7344 13 36.0017C13 38.269 13.5301 37.989 17.0847 37.989H53.5521C57.1066 37.989 56.766 36.9884 56.766 36C56.766 35.0116 58.2915 34.0353 53.5521 34.0353Z" fill="#DA4816"/>
<path d="M53.5521 43.0353H17.0847C17.0847 43.0353 13 42.7344 13 45.0017C13 47.269 13.5301 46.989 17.0847 46.989H53.5521C57.1066 46.989 56.766 45.9884 56.766 45C56.766 44.0116 58.2915 43.0353 53.5521 43.0353Z" fill="#DA4816"/>
<circle cx="34.5" cy="73.5" r="4.5" fill="#DA4816"/>
<path fill-rule="evenodd" clip-rule="evenodd" d="M62.0201 0H57.5868H6.81624C3.24677 0 0 2.31201 0 7.27069C0 12.2677 0.160331 27.1885 0.340939 42.4111H3.58974V6.28145C3.58974 4.9229 5.01748 3.56436 6.44522 3.56436H63.5548C64.9825 3.56436 66.4103 4.9229 66.4103 6.28145V83.7186C66.4103 85.0771 64.9825 86.4356 63.5548 86.4356H6.44522C5.01748 86.4356 3.58974 85.0771 3.58974 83.7186V67.3386H0.648499C0.759826 76.0847 0.840469 82.1739 0.840469 82.1739C0.840469 86.5217 4.38711 90 8.82041 90H62.0201C66.4534 90 70 86.5217 70 82.1739V7.3913C69.5567 3.47826 66.4534 0 62.0201 0Z" fill="#DA4816"/>
<path d="M4 57.9429L4 50.0571C4 49.0286 3 48 2 48C1 48 0 49.0286 0 50.0571L0 57.9429C0 58.9714 1 60 2 60C3 60 4 59.3143 4 57.9429Z" fill="#DA4816"/>
</svg>
