<svg width="108" height="90" viewBox="0 0 108 90" fill="none" xmlns="http://www.w3.org/2000/svg">
<path fill-rule="evenodd" clip-rule="evenodd" d="M108 7.85714V25C107.998 27.1667 107.103 29.2356 105.527 30.7143C107.103 32.193 107.998 34.2619 108 36.4286V53.5714C107.998 55.7381 107.103 57.807 105.527 59.2857C107.103 60.7644 107.998 62.8333 108 65V82.1429C107.992 86.479 104.498 89.9921 100.184 90H7.81579C3.50249 89.9921 0.00782105 86.479 0 82.1429V65C0.00210369 62.8333 0.897339 60.7644 2.47263 59.2857C0.897339 57.807 0.00210369 55.7381 0 53.5714V36.4286C0.00210369 34.2619 0.897339 32.193 2.47263 30.7143C0.897339 29.2356 0.00210369 27.1667 0 25V7.85714C0.00782105 3.52102 3.50249 0.00786243 7.81579 0H100.184C104.498 0.00786243 107.992 3.52102 108 7.85714ZM103.737 82.1429V65C103.737 63.0276 102.146 61.4286 100.184 61.4286H7.81579C5.85373 61.4286 4.26316 63.0276 4.26316 65V82.1429C4.26316 84.1153 5.85373 85.7143 7.81579 85.7143H100.184C102.146 85.7143 103.737 84.1153 103.737 82.1429ZM103.737 36.4286V53.5714C103.737 55.5439 102.146 57.1429 100.184 57.1429H7.81579C6.87357 57.1429 5.96995 56.7666 5.3037 56.0968C4.63745 55.427 4.26316 54.5186 4.26316 53.5714V36.4286C4.26316 34.4561 5.85373 32.8571 7.81579 32.8571H100.184C102.146 32.8571 103.737 34.4561 103.737 36.4286ZM4.26316 25C4.26316 26.9724 5.85373 28.5714 7.81579 28.5714H100.184C102.146 28.5714 103.737 26.9724 103.737 25V7.85714C103.737 5.8847 102.146 4.28571 100.184 4.28571H7.81579C5.85373 4.28571 4.26316 5.8847 4.26316 7.85714V25Z" fill="#DA4816"/>
<ellipse cx="18" cy="17.5" rx="4" ry="4.5" fill="#DA4816"/>
<ellipse cx="18" cy="45.5" rx="4" ry="4.5" fill="#DA4816"/>
<ellipse cx="18" cy="73.5" rx="4" ry="4.5" fill="#DA4816"/>
<path d="M94.8478 15H66.1522C64.9636 15 64 15.8954 64 17C64 18.1046 64.9636 19 66.1522 19H94.8478C96.0364 19 97 18.1046 97 17C97 15.8954 96.0364 15 94.8478 15Z" fill="#DA4816"/>
<path d="M66.1522 47H94.8478C96.0364 47 97 46.1046 97 45C97 43.8954 96.0364 43 94.8478 43H66.1522C64.9636 43 64 43.8954 64 45C64 46.1046 64.9636 47 66.1522 47Z" fill="#DA4816"/>
<path d="M66.1522 76H94.8478C96.0364 76 97 75.1046 97 74C97 72.8954 96.0364 72 94.8478 72H66.1522C64.9636 72 64 72.8954 64 74C64 75.1046 64.9636 76 66.1522 76Z" fill="#DA4816"/>
</svg>
