<svg width="119" height="108" viewBox="0 0 119 108" fill="none" xmlns="http://www.w3.org/2000/svg">
<path fill-rule="evenodd" clip-rule="evenodd" d="M4.52113 90.4762H45.9648C47.2133 90.4762 48.2254 91.4889 48.2254 92.7381C48.2254 93.9873 47.2133 95 45.9648 95H2.26056C1.01209 95 0 93.9873 0 92.7381V2.2619C0 1.01269 1.01209 0 2.26056 0H104.739C105.988 0 107 1.01269 107 2.2619V33.9286C107 35.1778 105.988 36.1905 104.739 36.1905C103.491 36.1905 102.479 35.1778 102.479 33.9286V25.6349H4.52113V90.4762ZM102.479 21.1111V4.52381H4.52113V21.1111H102.479Z" fill="#DA4816"/>
<path d="M13.25 15H20.75C21.9926 15 23 13.8807 23 12.5C23 11.1193 21.9926 10 20.75 10H13.25C12.0074 10 11 11.1193 11 12.5C11 13.8807 12.0074 15 13.25 15Z" fill="#DA4816"/>
<path d="M29.25 15H36.75C37.9926 15 39 13.8807 39 12.5C39 11.1193 37.9926 10 36.75 10H29.25C28.0074 10 27 11.1193 27 12.5C27 13.8807 28.0074 15 29.25 15Z" fill="#DA4816"/>
<path fill-rule="evenodd" clip-rule="evenodd" d="M68 72C68 63.7157 74.7157 57 83 57C91.2843 57 98 63.7157 98 72C98 80.2843 91.2843 87 83 87C74.7157 87 68 80.2843 68 72ZM72.5 72C72.5 77.799 77.201 82.5 83 82.5C88.799 82.5 93.5 77.799 93.5 72C93.5 66.201 88.799 61.5 83 61.5C77.201 61.5 72.5 66.201 72.5 72Z" fill="#DA4816"/>
<path fill-rule="evenodd" clip-rule="evenodd" d="M108.429 62.3616L117.067 63.6755C118.175 63.8399 118.997 64.79 119 65.9106V76.0894C119.003 77.1858 118.221 78.1271 117.142 78.3245L108.429 79.6384C107.986 80.9458 107.446 82.218 106.813 83.4441L112.053 90.542C112.761 91.4587 112.663 92.7616 111.827 93.5625L104.638 100.751C103.837 101.587 102.534 101.685 101.618 100.978L94.4894 95.722C93.2523 96.3461 91.9701 96.8762 90.6535 97.3078L89.3245 106.067C89.1601 107.175 88.21 107.997 87.0894 108H76.9106C75.8381 107.966 74.9365 107.184 74.751 106.127L73.422 97.3682C72.1054 96.9367 70.8231 96.4066 69.5861 95.7824L62.458 101.038C61.5413 101.746 60.2384 101.648 59.4375 100.811L52.249 93.6229C51.4125 92.822 51.3148 91.5191 52.0224 90.6024L57.2629 83.5045C56.6265 82.2589 56.0863 80.9664 55.6469 79.6384L46.9331 78.3245C45.8246 78.1601 45.0028 77.21 45 76.0894V65.9106C45.0005 64.7998 45.8064 63.8532 46.9029 63.6755L55.5714 62.3616C55.9979 61.0454 56.523 59.7631 57.142 58.5257L51.9469 51.4731C51.2393 50.5564 51.337 49.2536 52.1735 48.4527L59.362 41.2641C60.1629 40.4276 61.4657 40.3299 62.3824 41.0376L69.4049 46.2176C70.6842 45.5667 72.0121 45.0163 73.3767 44.5714L74.6755 35.9331C74.8399 34.8246 75.79 34.0028 76.9106 34H87.0894C88.2199 34.005 89.1737 34.8428 89.3245 35.9633L90.6233 44.5714C91.9642 44.985 93.2718 45.5 94.5347 46.1118L101.557 40.9318C102.474 40.2242 103.777 40.3219 104.578 41.1584L111.766 48.3469C112.603 49.1478 112.7 50.4506 111.993 51.3673L106.798 58.42C107.442 59.6898 107.988 61.0076 108.429 62.3616ZM106.269 75.3796L114.469 74.1412L114.5 67.8739L106.329 66.6355C105.434 66.5027 104.703 65.8495 104.472 64.9743C103.951 63.0132 103.175 61.1293 102.161 59.3714C101.71 58.5922 101.764 57.6199 102.297 56.8947L107.19 50.2649L102.75 45.8249L96.1355 50.7029C95.4117 51.2402 94.437 51.2937 93.6588 50.8388C91.8929 49.8128 89.9987 49.0257 88.0257 48.498C87.1505 48.2663 86.4973 47.5359 86.3645 46.6404L85.1412 38.5306H78.8588L77.6657 46.6253C77.5329 47.5208 76.8797 48.2512 76.0045 48.4829C74.0315 49.0106 72.1373 49.7977 70.3714 50.8237C69.5922 51.2745 68.6199 51.2212 67.8947 50.6878L61.28 45.8098L56.84 50.2498L61.7331 56.8796C62.2665 57.6048 62.3198 58.5771 61.869 59.3563C60.8556 61.1142 60.0787 62.998 59.5584 64.9592C59.3267 65.8344 58.5963 66.4876 57.7008 66.6204L49.5306 67.8588V74.1412L57.7461 75.3796C58.6318 75.5156 59.354 76.1609 59.5886 77.0257C60.1147 78.9657 60.8915 80.8289 61.8992 82.5682C62.3501 83.3474 62.2967 84.3197 61.7633 85.0449L56.8098 91.7351L61.2498 96.1751L67.9702 91.2216C68.6954 90.6882 69.6677 90.6348 70.4469 91.0857C72.1779 92.0811 74.0308 92.8477 75.9592 93.3661C76.824 93.6007 77.4693 94.3229 77.6053 95.2086L78.8588 103.469H85.1412L86.3947 95.2086C86.5307 94.3229 87.176 93.6007 88.0408 93.3661C89.9692 92.8478 91.8221 92.0813 93.5531 91.0857C94.3323 90.6348 95.3046 90.6882 96.0298 91.2216L102.75 96.1751L107.19 91.7351L102.252 85.0449C101.718 84.3197 101.665 83.3474 102.116 82.5682C103.124 80.8289 103.9 78.9657 104.427 77.0257C104.661 76.1609 105.383 75.5156 106.269 75.3796Z" fill="#DA4816"/>
</svg>
