<svg width="111" height="104" viewBox="0 0 111 104" fill="none" xmlns="http://www.w3.org/2000/svg">
<path fill-rule="evenodd" clip-rule="evenodd" d="M9.88776 0H101.112C106.618 0 111 3.73521 111 8.32V75.173C111 79.7577 106.618 83.493 101.112 83.493H56.9605V99.6056H83.9803C85.1902 99.6056 86.1711 100.589 86.1711 101.803C86.1711 103.016 85.1902 104 83.9803 104H27.0197C25.8098 104 24.8289 103.016 24.8289 101.803C24.8289 100.589 25.8098 99.6056 27.0197 99.6056H52.5789V83.493H9.88776C4.38158 83.493 0 79.7577 0 75.173V8.17352C0.131447 3.55944 4.46921 0 9.88776 0ZM101.112 79.0986C104.092 79.0986 106.618 77.2969 106.618 75.173V8.32C106.618 6.19606 104.033 4.39437 101.112 4.39437H9.88776C6.90829 4.39437 4.38158 6.12282 4.38158 8.23211V75.173C4.38158 77.2969 6.96671 79.0986 9.88776 79.0986H101.112Z" fill="#DA4816"/>
<path d="M62.8358 29.2279C61.7753 28.701 60.4867 29.1183 59.9397 30.1657L48.2396 52.8467C47.8853 53.5349 47.9263 54.3591 48.3472 55.009C48.7681 55.6589 49.505 56.0356 50.2803 55.9973C51.0556 55.9591 51.7515 55.5116 52.1059 54.8234L63.777 32.0991C64.2962 31.046 63.8788 29.7725 62.8358 29.2279Z" fill="#DA4816"/>
<path d="M76.8145 28.582C75.9465 27.7859 74.594 27.8093 73.7551 28.6351C72.9163 29.4609 72.8924 30.7924 73.7012 31.6468L84.6858 42.4459L73.7012 53.245C73.1118 53.7856 72.8692 54.5997 73.0686 55.368C73.2679 56.1363 73.8773 56.7363 74.6578 56.9325C75.4383 57.1287 76.2653 56.8899 76.8145 56.3098L89.3558 43.9783C90.2147 43.1317 90.2147 41.7601 89.3558 40.9135L76.8145 28.582Z" fill="#DA4816"/>
<path d="M38.3536 27.6348C37.4907 26.7884 36.0928 26.7884 35.2299 27.6348L22.6464 39.9923C21.7845 40.8397 21.7845 42.2125 22.6464 43.0599L35.2299 55.4175C36.1007 56.2143 37.4578 56.1908 38.2995 55.3643C39.1411 54.5377 39.1651 53.205 38.3536 52.3498L27.332 41.5406L38.3536 30.7024C39.2155 29.855 39.2155 28.4822 38.3536 27.6348Z" fill="#DA4816"/>
</svg>
