<svg width="137" height="45" fill="none" xmlns="http://www.w3.org/2000/svg"><path d="M24.0003 9.73632V.425982c.0021-.111907.0502-.218136.1332-.294117.0775-.0812337.1844-.12866423.2972-.13184581h2.8028c.1147-.00107018.2252.04266181.3075.12170381.0798.081442.124.190772.1229.304259V9.55376c-.021.75514.2673 1.48674.7994 2.02844.5164.5492 1.2455.8537 2.0034.8367.7696.0237 1.5136-.2745 2.0496-.8215.5355-.5399.8259-1.2722.8044-2.02842V.441195c-.0014-.114553.0449-.224633.1281-.304259.081-.0810196.1924-.1251008.3075-.1217038h2.7976c.1142-.0035505.225.0384809.3075.1166328.0844.075457.1343.181584.1383.294117V9.73632c.0163 1.67228-.677 3.27458-1.9112 4.41688-1.2198 1.2099-2.8848 1.8764-4.6115 1.8458-1.7127.0275-3.3622-.6394-4.5655-1.8458-1.2352-1.1416-1.9287-2.7444-1.9112-4.41688Z" fill="#E8E8E8"/><path fill-rule="evenodd" clip-rule="evenodd" d="M42.0587 15.8164c.0813.1221.2202.1915.3652.1825h2.4463c.3558.0185.6813-.2021.8004-.5424l.8004-1.7996h6.048l.8104 1.7793c.1171.3334.4263.5578.7754.5627h2.4713c.145.009.2839-.0604.3652-.1825.0783-.1235.0783-.282 0-.4055L49.9827.248743c-.0609-.1545787-.211-.25388843-.3751-.2483938h-.2252c-.1646-.00703552-.3154.0928047-.3751.2483938L42.0587 15.4109c-.0783.1235-.0783.282 0 .4055Zm9.1247-5.201h-3.3768l1.6859-3.71579 1.6909 3.71579Z" fill="#E8E8E8"/><path d="M62 16.3142V.425021c.0032-.111278.0503-.21658.1308-.292177.0821-.0862875.1957-.13433724.3139-.1328086h.5807L72.3012 9.06818h.0262V.685325c-.0011-.118888.044-.233421.1255-.318739.0827-.084876.1964-.131055.3139-.127496h2.7937c.1176-.000628.2298.049602.3087.138121.0814.081517.1283.192043.1308.308114V16.5745c.0001.1136-.0474.2218-.1308.2975-.0814.0835-.1929.1296-.3087.1275h-.3766c-.1113.0058-.2197-.0367-.2983-.1169l-9.213-9.37094v8.80254c.0016.12-.0458.2353-.1307.3187-.0811.088-.1954.1364-.3139.1328h-2.7676c-.1147-.0037-.2227-.0556-.2982-.1434-.0946-.0748-.1535-.1867-.1622-.3081ZM86.0336 15.5628V3.33798h-3.563c-.1258.00345-.2476-.04126-.3361-.12343-.0873-.0826-.1357-.19348-.1345-.30858V.432196c-.0012-.115099.0472-.225981.1345-.308579.0885-.0821699.2103-.12687678.3361-.12343164h11.0532c.1258-.00344514.2476.04126174.3361.12343164.091.080756.1417.192399.1401.308579V2.92654c0 .11547-.0504.22614-.1398.30731-.0895.08117-.2107.12608-.3364.1247h-3.5574V15.5628c-.0211.233-.2225.4179-.4762.4372h-2.986c-.1245-.0034-.242-.0536-.3249-.1389-.0919-.0763-.1448-.1845-.1457-.2983ZM99.0002 9.73636V.426141c.004-.112532.054-.218658.1385-.294114.0756-.0809377.1809-.12844357.2923-.13184424h2.805c.115-.00339687.227.04068364.308.12170224.08.081441.124.19077.123.304256V9.55381c-.021.75519.267 1.48669.8 2.02839.517.5482 1.246.8524 2.005.8367.77.025 1.515-.2734 2.051-.8215.537-.5394.83-1.2715.81-2.02838V.441353c-.001-.113485.043-.222814.123-.304255.081-.0810188.193-.1250993.308-.1217025h2.805c.113.0042599.219.0515153.297.1318445.082.077299.129.182714.134.294113V9.73636c.018 1.67264-.676 3.27564-1.913 4.41674-1.221 1.2105-2.887 1.877-4.615 1.8459-1.711.0247-3.357-.642-4.559-1.8459-1.2341-1.143-1.9278-2.7448-1.9128-4.41674ZM118.002 16.2451 120.694.379492c.001-.108312.049-.211191.131-.2830884.082-.0718979.191-.10607072.3-.09403248h.383c.171-.00927531.331.08538758.403.23902088l5.552 10.198208h.049L133.079.241392c.074-.1555221.236-.25054388.41-.23902088h.382c.109-.01036351.217.02439808.299.09594418.081.0715457.129.1734197.132.2811767l2.692 15.865608c.022.1352-.017.2731-.108.3772-.087.0958-.213.1483-.344.1434h-2.827c-.11-.0017-.216-.0433-.296-.1169-.081-.0665-.136-.1584-.157-.2603l-1.076-7.29804h-.049l-4.022 7.64864c-.065.163-.227.2677-.404.2603h-.431c-.179.0097-.344-.0953-.409-.2603l-4.023-7.64864h-.048l-1.029 7.29804c-.005.1118-.057.2164-.144.2882-.087.0717-.201.104-.313.089h-2.822c-.132.0043-.26-.048-.35-.1434-.102-.0986-.153-.2371-.14-.3772Z" fill="#E8E8E8"/><path fill-rule="evenodd" clip-rule="evenodd" d="M.00124787 8.02524C-.0369961 10.1497.805266 12.1956 2.32863 13.6784c1.48344 1.5226 3.53234 2.3626 5.65874 2.3201 2.13053.0407 4.18343-.7987 5.67393-2.3201 1.5281-1.4804 2.3744-3.5269 2.3375-5.65316.036-2.13349-.8095-4.18753-2.3375-5.67851C12.1776.81249 10.1225-.0369925 7.98737.0013688 5.85637-.0389079 3.80524.811216 2.32863 2.34673.805933 3.84046-.0355603 5.89359.00124787 8.02524ZM4.86391 11.1456c-.84883-.8153-1.32388-1.94402-1.31327-3.12036-.01438-1.18744.46049-2.32857 1.31327-3.15585.81084-.85686 1.94324-1.33619 3.12346-1.32212 1.18352-.01348 2.31973.46332 3.13863 1.31705.8559.82521 1.3313 1.96772 1.3133 3.15585.0157 1.17881-.4601 2.31103-1.3133 3.12543-.8241.8438-1.95872 1.3126-3.13863 1.2968-1.17581.0176-2.30646-.4518-3.12346-1.2968Z" fill="#E8E8E8"/><circle cx="16.5" cy="14.5" r="1.5" fill="#E8E8E8"/><path d="M1.22904 43.2775c-.09166-.0738-.16295-.1677-.20765-.2737-.00367-.1213.02962-.241.09584-.3447l1.09679-1.8448c.08079-.1354.23053-.2201.394-.2231.14072-.0267.28667.0067.39932.0913l.15973.0861c.11003.0744.23781.1555.38334.2433.18114.1082.36969.2047.56437.2889.22362.1064.44724.2027.67618.2889.24128.0946.49066.1692.7454.223.25632.0591.51895.0897.78266.0912.42141.0147.83341-.1208 1.15537-.3801.29515-.2356.46168-.5862.45256-.9528 0-.892-.79864-1.6371-2.40124-2.2453-3.01708-1.1387-4.52561-2.7741-4.52561-4.9061-.008166-1.1817.50807-2.3118 1.42157-3.112C3.37649 29.4359 4.70223 29 6.39889 29c1.8105.0215 3.5641.6052 4.99411 1.6624.1266.0807.204.2149.2077.3599.0234.1223-.0012.2486-.0692.3547l-1.1927 1.7081c-.0928.1345-.2265.2388-.38331.299-.12623.0719-.28374.0719-.40997 0-.09652-.0529-.18904-.1122-.27686-.1774-.18721-.1268-.38284-.2419-.58567-.3446l-.73475-.365c-.27398-.1408-.56317-.2529-.86252-.3345-.28056-.0768-.57062-.1177-.86253-.1216-.38576-.0147-.76403.1042-1.06485.3345-.26316.1903-.41856.4862-.42062.8008.00612.4444.22102.8628.58567 1.1404.59262.4345 1.25396.7766 1.95932 1.0136C10.424 36.5129 11.9965 38.2024 12 40.3987c-.0078 1.2274-.5634 2.3938-1.5281 3.2082-1.08217.9463-2.51426 1.4456-3.9825 1.3887-1.12898.0332-2.25294-.1566-3.30104-.5575-.7208-.2722-1.38443-.6653-1.95932-1.1606ZM20.698 44.567V32.3597h-3.2656c-.116.0014-.2276-.0445-.3091-.1271-.0816-.0827-.126-.195-.1232-.3112V29.433c-.0014-.1152.0437-.2262.1251-.3077.0814-.0815.1921-.1267.3072-.1253h10.1352c.1151-.0014.2258.0438.3072.1253.0814.0815.1265.1925.1251.3077v2.4884c.0028.1162-.0416.2285-.1232.3112-.0815.0826-.1931.1285-.3091.1271H24.302V44.567c-.0173.2315-.2011.4156-.4322.433h-2.7396c-.2311-.0174-.4149-.2015-.4322-.433Z" fill="#E8E8E8"/><path fill-rule="evenodd" clip-rule="evenodd" d="M32.0018 37.023c-.0461 2.1209.786 4.1668 2.2998 5.6546h.0254c3.1431 3.0965 8.1934 3.0965 11.3365 0 1.5278-1.4811 2.3733-3.5282 2.3353-5.6546.0359-2.1334-.8087-4.1875-2.3353-5.6798-3.1317-3.1243-8.2048-3.1243-11.3365 0-1.5219 1.4947-2.3626 3.5482-2.3252 5.6798Zm4.8585 3.1189c-.8474-.815-1.3196-1.9439-1.3047-3.1189-.0171-1.1872.4546-2.3294 1.3047-3.1594.8262-.8365 1.9535-1.3075 3.1298-1.3075 1.1764 0 2.3037.471 3.1299 1.3075.8548.8275 1.3305 1.9704 1.3149 3.1594.0134 1.1768-.4628 2.3063-1.3149 3.1189-.8275.834-1.9543 1.3032-3.1299 1.3032-1.1755 0-2.3023-.4692-3.1298-1.3032ZM55.0001 29.4336v15.1273h.0153c-.0014.1162.0435.228.1244.3096.081.0817.1909.1262.3047.1234h2.6615c.1147.0006.2243-.0487.3014-.1356.0759-.0799.1197-.1861.1226-.2974v-5.8318h1.5325l2.9577 6.0613c.0684.1356.2085.2174.3576.2087h2.9782c.1615.0107.3147-.0746.3933-.2191.0845-.1352.0845-.3082 0-.4434l-3.065-5.8057c.9536-.377 1.7875-1.0139 2.4112-1.8414.5946-.7889.913-1.7587.9041-2.7542.016-1.3136-.5019-2.5752-1.4303-3.4845-.9051-.9472-2.1523-1.4718-3.4482-1.4502h-6.6919c-.1138-.0028-.2238.0417-.3047.1234-.0809.0817-.1259.1934-.1244.3096Zm6.8299 6.3952h-3.3154v-3.5732H61.83c.4519-.0023.8846.1865 1.1953.5217.3282.3172.5131.7591.5109 1.2206.0019.4797-.1817.9409-.5109 1.2832-.3027.3496-.7383.5492-1.1953.5477Z" fill="#E8E8E8"/><path d="M73.0001 44.5667V29.4333c-.002-.1154.0418-.2267.1212-.3079.0779-.0831.186-.1285.2979-.1252h9.1615c.1116-.0014.219.0437.2979.1253.0789.0815.1226.1925.1213.3078v2.484c.0027.1162-.0404.2285-.1194.3112-.0791.0827-.1873.1286-.2998.1271h-6.1312v2.8336h5.0504c.1119-.0033.2201.0421.298.1253.0794.0812.1232.1924.1212.3078v2.4944c.002.1155-.0418.2267-.1212.3079-.0779.0831-.1861.1286-.298.1253h-5.0504v3.0893h6.1312c.1116-.0014.219.0437.2979.1253.0789.0815.1226.1925.1213.3078v2.4944c.0013.1153-.0424.2263-.1213.3078-.0789.0816-.1863.1267-.2979.1253h-9.1615c-.1119.0033-.22-.0421-.2979-.1252-.0794-.0812-.1232-.1925-.1212-.3079Z" fill="#E8E8E8"/></svg>