<svg width="36" height="24" viewBox="0 0 36 24" fill="none" xmlns="http://www.w3.org/2000/svg">
<path d="M7.3125 18.75C6.97874 18.75 6.65248 18.839 6.37498 19.0057C6.09747 19.1725 5.88118 19.4095 5.75345 19.6867C5.62573 19.964 5.59231 20.2691 5.65743 20.5635C5.72254 20.8578 5.88326 21.1282 6.11926 21.3404C6.35526 21.5527 6.65594 21.6972 6.98329 21.7557C7.31063 21.8143 7.64993 21.7842 7.95828 21.6694C8.26663 21.5545 8.53018 21.36 8.7156 21.1105C8.90103 20.8609 9 20.5676 9 20.2674C8.9995 19.8651 8.82155 19.4794 8.50519 19.1949C8.18883 18.9105 7.7599 18.7505 7.3125 18.75ZM7.3125 20.7733C7.20125 20.7733 7.09249 20.7436 6.99999 20.688C6.90749 20.6324 6.83539 20.5534 6.79282 20.461C6.75024 20.3686 6.7391 20.2669 6.76081 20.1688C6.78251 20.0706 6.83609 19.9805 6.91475 19.9098C6.99342 19.839 7.09365 19.7909 7.20276 19.7713C7.31188 19.7518 7.42498 19.7618 7.52776 19.8001C7.63054 19.8384 7.71839 19.9032 7.7802 19.9864C7.84201 20.0696 7.875 20.1674 7.875 20.2674C7.87483 20.4015 7.81552 20.5301 7.71006 20.6249C7.60461 20.7198 7.46163 20.7731 7.3125 20.7733V20.7733Z" fill="#303030"/>
<path d="M28.6875 18.75C28.3537 18.75 28.0275 18.839 27.75 19.0057C27.4725 19.1725 27.2562 19.4095 27.1285 19.6867C27.0007 19.964 26.9673 20.2691 27.0324 20.5635C27.0975 20.8578 27.2583 21.1282 27.4943 21.3404C27.7303 21.5527 28.0309 21.6972 28.3583 21.7557C28.6856 21.8143 29.0249 21.7842 29.3333 21.6694C29.6416 21.5545 29.9052 21.36 30.0906 21.1105C30.276 20.8609 30.375 20.5676 30.375 20.2674C30.3745 19.8651 30.1966 19.4794 29.8802 19.1949C29.5638 18.9105 29.1349 18.7505 28.6875 18.75V18.75ZM28.6875 20.7733C28.5763 20.7733 28.4675 20.7436 28.375 20.688C28.2825 20.6324 28.2104 20.5534 28.1678 20.461C28.1252 20.3686 28.1141 20.2669 28.1358 20.1688C28.1575 20.0706 28.2111 19.9805 28.2898 19.9098C28.3684 19.839 28.4686 19.7909 28.5778 19.7713C28.6869 19.7518 28.8 19.7618 28.9028 19.8001C29.0055 19.8384 29.0934 19.9032 29.1552 19.9864C29.217 20.0696 29.25 20.1674 29.25 20.2674C29.2498 20.4015 29.1905 20.5301 29.0851 20.6249C28.9796 20.7198 28.8366 20.7731 28.6875 20.7733V20.7733Z" fill="#303030"/>
<path d="M35.3482 11.9007L30.2857 4.81928C30.2347 4.74807 30.1647 4.68952 30.082 4.64897C29.9993 4.60843 29.9067 4.5872 29.8125 4.58724H23.0625V1.80526C23.0619 1.33589 22.8543 0.885901 22.4852 0.554008C22.1161 0.222116 21.6157 0.0354309 21.0938 0.0349121H2.53125C2.00928 0.0354309 1.50886 0.222116 1.13977 0.554008C0.770684 0.885901 0.563077 1.33589 0.5625 1.80526V20.2675C0.5625 20.4016 0.621763 20.5303 0.727252 20.6251C0.832742 20.72 0.975816 20.7733 1.125 20.7733H3.41578C3.551 21.6159 4.01935 22.3865 4.73502 22.9438C5.45069 23.5012 6.36574 23.808 7.3125 23.808C8.25926 23.808 9.17431 23.5012 9.88998 22.9438C10.6057 22.3865 11.074 21.6159 11.2092 20.7733H24.7908C24.926 21.6159 25.3943 22.3865 26.11 22.9438C26.8257 23.5012 27.7407 23.808 28.6875 23.808C29.6343 23.808 30.5493 23.5012 31.265 22.9438C31.9807 22.3865 32.449 21.6159 32.5842 20.7733H34.875C35.0242 20.7733 35.1673 20.72 35.2727 20.6251C35.3782 20.5303 35.4375 20.4016 35.4375 20.2675V12.1744C35.4375 12.0774 35.4065 11.9824 35.3482 11.9007V11.9007ZM7.3125 22.7965C6.75624 22.7965 6.21247 22.6482 5.74996 22.3703C5.28745 22.0924 4.92696 21.6974 4.71409 21.2353C4.50122 20.7732 4.44552 20.2647 4.55404 19.7741C4.66256 19.2835 4.93043 18.8328 5.32376 18.4791C5.7171 18.1255 6.21824 17.8846 6.76381 17.787C7.30938 17.6894 7.87488 17.7395 8.3888 17.9309C8.90271 18.1223 9.34197 18.4465 9.65101 18.8624C9.96005 19.2783 10.125 19.7673 10.125 20.2675C10.1243 20.938 9.8277 21.5809 9.30042 22.0551C8.77313 22.5292 8.05819 22.7959 7.3125 22.7965V22.7965ZM21.9375 19.7617H11.2092C11.074 18.919 10.6057 18.1484 9.88998 17.5911C9.17431 17.0337 8.25926 16.727 7.3125 16.727C6.36574 16.727 5.45069 17.0337 4.73502 17.5911C4.01935 18.1484 3.551 18.919 3.41578 19.7617H1.6875V14.7035H21.9375V19.7617ZM21.9375 13.6919H1.6875V1.80526C1.68769 1.60409 1.77664 1.4112 1.93483 1.26895C2.09303 1.1267 2.30753 1.04671 2.53125 1.04654H21.0938C21.3175 1.04671 21.532 1.1267 21.6902 1.26895C21.8484 1.4112 21.9373 1.60409 21.9375 1.80526V13.6919ZM30.5902 7.11631L33.8449 11.6686H25.875V7.11631H30.5902ZM28.6875 22.7965C28.1312 22.7965 27.5875 22.6482 27.125 22.3703C26.6624 22.0924 26.302 21.6974 26.0891 21.2353C25.8762 20.7732 25.8205 20.2647 25.929 19.7741C26.0376 19.2835 26.3054 18.8328 26.6988 18.4791C27.0921 18.1255 27.5932 17.8846 28.1388 17.787C28.6844 17.6894 29.2499 17.7395 29.7638 17.9309C30.2777 18.1223 30.717 18.4465 31.026 18.8624C31.3351 19.2783 31.5 19.7673 31.5 20.2675C31.4993 20.938 31.2027 21.5809 30.6754 22.0551C30.1481 22.5292 29.4332 22.7959 28.6875 22.7965V22.7965ZM34.3125 15.7151H33.1875C33.0383 15.7151 32.8952 15.6619 32.7898 15.567C32.6843 15.4721 32.625 15.3435 32.625 15.2093C32.625 15.0752 32.6843 14.9465 32.7898 14.8517C32.8952 14.7568 33.0383 14.7035 33.1875 14.7035H34.3125V15.7151ZM34.3125 13.6919H33.1875C32.7399 13.6919 32.3107 13.8518 31.9943 14.1363C31.6778 14.4209 31.5 14.8069 31.5 15.2093C31.5 15.6118 31.6778 15.9977 31.9943 16.2823C32.3107 16.5669 32.7399 16.7268 33.1875 16.7268H34.3125V19.7617H32.5842C32.449 18.919 31.9807 18.1484 31.265 17.5911C30.5493 17.0337 29.6343 16.727 28.6875 16.727C27.7407 16.727 26.8257 17.0337 26.11 17.5911C25.3943 18.1484 24.926 18.919 24.7908 19.7617H23.0625V5.59887H29.5052L29.8673 6.10468H25.3125C25.1633 6.10468 25.0202 6.15797 24.9148 6.25283C24.8093 6.34769 24.75 6.47634 24.75 6.61049V12.1744C24.75 12.3086 24.8093 12.4373 24.9148 12.5321C25.0202 12.627 25.1633 12.6803 25.3125 12.6803H34.3125V13.6919Z" fill="#303030"/>
<path d="M27 13.6919H25.3125C25.1633 13.6919 25.0202 13.7452 24.9148 13.84C24.8093 13.9349 24.75 14.0636 24.75 14.1977C24.75 14.3319 24.8093 14.4605 24.9148 14.5554C25.0202 14.6502 25.1633 14.7035 25.3125 14.7035H27C27.1492 14.7035 27.2923 14.6502 27.3977 14.5554C27.5032 14.4605 27.5625 14.3319 27.5625 14.1977C27.5625 14.0636 27.5032 13.9349 27.3977 13.84C27.2923 13.7452 27.1492 13.6919 27 13.6919Z" fill="#303030"/>
<path d="M15.1875 16.7268H19.6875C19.8367 16.7268 19.9798 16.6735 20.0852 16.5786C20.1907 16.4838 20.25 16.3551 20.25 16.221C20.25 16.0868 20.1907 15.9582 20.0852 15.8633C19.9798 15.7684 19.8367 15.7151 19.6875 15.7151H15.1875C15.0383 15.7151 14.8952 15.7684 14.7898 15.8633C14.6843 15.9582 14.625 16.0868 14.625 16.221C14.625 16.3551 14.6843 16.4838 14.7898 16.5786C14.8952 16.6735 15.0383 16.7268 15.1875 16.7268Z" fill="#303030"/>
<path d="M19.6875 17.2326H18C17.8508 17.2326 17.7077 17.2859 17.6023 17.3808C17.4968 17.4756 17.4375 17.6043 17.4375 17.7384C17.4375 17.8726 17.4968 18.0012 17.6023 18.0961C17.7077 18.1909 17.8508 18.2442 18 18.2442H19.6875C19.8367 18.2442 19.9798 18.1909 20.0852 18.0961C20.1907 18.0012 20.25 17.8726 20.25 17.7384C20.25 17.6043 20.1907 17.4756 20.0852 17.3808C19.9798 17.2859 19.8367 17.2326 19.6875 17.2326Z" fill="#303030"/>
</svg>
