<svg width="28" height="28" viewBox="0 0 28 28" fill="none" xmlns="http://www.w3.org/2000/svg">
<path d="M23.9043 22.1046C23.552 22.5299 22.9216 22.589 22.4963 22.2367C22.071 21.8844 22.0118 21.254 22.3642 20.8287L23.9043 22.1046ZM17.8185 24.1625C18.3302 23.9548 18.9135 24.2014 19.1211 24.7131C19.3288 25.2249 19.0823 25.8081 18.5705 26.0157L17.8185 24.1625ZM22.0136 21.1644C21.9228 20.6196 22.2908 20.1044 22.8356 20.0136C23.3804 19.9228 23.8956 20.2908 23.9864 20.8356L22.0136 21.1644ZM24.9864 26.8356C25.0772 27.3804 24.7092 27.8956 24.1644 27.9864C23.6196 28.0772 23.1044 27.7092 23.0136 27.1644L24.9864 26.8356ZM24.4472 26.1056C24.9412 26.3526 25.1414 26.9532 24.8944 27.4472C24.6474 27.9412 24.0468 28.1414 23.5528 27.8944L24.4472 26.1056ZM17.5528 24.8944C17.0588 24.6474 16.8586 24.0468 17.1056 23.5528C17.3526 23.0588 17.9532 22.8586 18.4472 23.1056L17.5528 24.8944ZM22.3642 20.8287C24.0143 18.837 25 16.2863 25 13.5H27C27 16.7675 25.8417 19.7662 23.9043 22.1046L22.3642 20.8287ZM25 13.5C25 7.15066 19.8493 2 13.5 2V0C20.9539 0 27 6.04609 27 13.5H25ZM13.5 2C7.15066 2 2 7.15066 2 13.5H0C0 6.04609 6.04609 0 13.5 0V2ZM2 13.5C2 19.8493 7.15066 25 13.5 25V27C6.04609 27 0 20.9539 0 13.5H2ZM13.5 25C15.0301 25 16.486 24.7032 17.8185 24.1625L18.5705 26.0157C17.0022 26.6521 15.2911 27 13.5 27V25ZM23.9864 20.8356L24.9864 26.8356L23.0136 27.1644L22.0136 21.1644L23.9864 20.8356ZM23.5528 27.8944L17.5528 24.8944L18.4472 23.1056L24.4472 26.1056L23.5528 27.8944Z" fill="#D94923"/>
<circle cx="7" cy="14" r="2" fill="#D94923"/>
<circle cx="13" cy="14" r="2" fill="#D94923"/>
<circle cx="19" cy="14" r="2" fill="#D94923"/>
</svg>
