<svg width="27" height="27" viewBox="0 0 27 27" fill="none" xmlns="http://www.w3.org/2000/svg">
<path fill-rule="evenodd" clip-rule="evenodd" d="M13.5 0C20.9443 0 27 6.05621 27 13.5C27 17.3066 25.4101 20.7435 22.8671 23.2C22.8076 23.2776 22.7371 23.3404 22.6546 23.3933C20.2457 25.624 17.0344 27 13.5 27C9.96556 27 6.75433 25.624 4.34544 23.3933C4.2629 23.3404 4.19238 23.2776 4.13285 23.2C1.58986 20.7435 0 17.3066 0 13.5C0 6.05621 6.05566 0 13.5 0ZM25.3125 13.5C25.3125 6.98676 20.0138 1.6875 13.5 1.6875C6.98621 1.6875 1.6875 6.98676 1.6875 13.5C1.6875 16.2618 2.64743 18.7997 4.24155 20.8135C4.97337 18.4534 7.06263 16.6058 9.8982 15.7557C8.35291 14.6374 7.34216 12.8255 7.34216 10.7781C7.34216 7.38721 10.1041 4.62854 13.5 4.62854C16.8959 4.62854 19.6578 7.38721 19.6578 10.7781C19.6578 12.8255 18.6471 14.6374 17.1018 15.7557C19.9374 16.6058 22.0266 18.4534 22.7585 20.8135C24.3526 18.7997 25.3125 16.2618 25.3125 13.5ZM9.02966 10.7781C9.02966 8.31775 11.0347 6.31604 13.5 6.31604C15.9653 6.31604 17.9703 8.31775 17.9703 10.7781C17.9703 13.2385 15.9653 15.2402 13.5 15.2402C11.0347 15.2402 9.02966 13.2385 9.02966 10.7781ZM13.5 16.9277C9.19391 16.9277 5.91325 19.2173 5.65961 22.311C7.74776 24.1712 10.4898 25.3125 13.5 25.3125C16.5102 25.3125 19.2522 24.1712 21.3404 22.311C21.0867 19.2173 17.8061 16.9277 13.5 16.9277Z" fill="#D94923"/>
</svg>
