<svg width="234" height="89" viewBox="0 0 234 89" fill="none" xmlns="http://www.w3.org/2000/svg">
<path d="M121 32.7363V23.426C121.002 23.3141 121.051 23.2078 121.134 23.1319C121.211 23.0506 121.318 23.0032 121.431 23H124.234C124.348 22.9989 124.459 23.0427 124.541 23.1217C124.621 23.2032 124.665 23.3125 124.664 23.426V32.5538C124.643 33.3089 124.931 34.0405 125.463 34.5822C125.98 35.1314 126.709 35.4359 127.467 35.4189C128.236 35.4426 128.98 35.1444 129.516 34.5974C130.052 34.0575 130.342 33.3252 130.321 32.569V23.4412C130.319 23.3266 130.366 23.2166 130.449 23.1369C130.53 23.0559 130.641 23.0118 130.756 23.0152H133.554C133.668 23.0117 133.779 23.0537 133.861 23.1319C133.946 23.2073 133.996 23.3134 134 23.426V32.7363C134.016 34.4086 133.323 36.0109 132.088 37.1532C130.869 38.3631 129.204 39.0296 127.477 38.999C125.764 39.0265 124.115 38.3596 122.912 37.1532C121.676 36.0116 120.983 34.4088 121 32.7363Z" fill="#184472"/>
<path fill-rule="evenodd" clip-rule="evenodd" d="M139.059 38.8164C139.14 38.9385 139.279 39.0079 139.424 38.9989H141.87C142.226 39.0174 142.552 38.7968 142.671 38.4565L143.471 36.6569H149.519L150.329 38.4362C150.446 38.7696 150.756 38.994 151.105 38.9989H153.576C153.721 39.0079 153.86 38.9385 153.941 38.8164C154.02 38.6929 154.02 38.5344 153.941 38.4109L146.983 23.2487C146.922 23.0942 146.772 22.9949 146.608 23.0003H146.382C146.218 22.9933 146.067 23.0932 146.007 23.2487L139.059 38.4109C138.98 38.5344 138.98 38.6929 139.059 38.8164ZM148.183 33.6154H144.807L146.492 29.8996L148.183 33.6154Z" fill="#184472"/>
<path d="M159 39.3142V23.425C159.003 23.3137 159.05 23.2084 159.131 23.1328C159.213 23.0466 159.327 22.9985 159.445 23H160.025L169.301 32.0682H169.327V23.6853C169.326 23.5664 169.371 23.4519 169.453 23.3666C169.536 23.2817 169.649 23.2355 169.767 23.2391H172.561C172.678 23.2385 172.79 23.2887 172.869 23.3772C172.951 23.4587 172.998 23.5693 173 23.6853V39.5745C173 39.6881 172.953 39.7963 172.869 39.872C172.788 39.9555 172.676 40.0016 172.561 39.9995H172.184C172.073 40.0053 171.964 39.9628 171.886 39.8826L162.673 30.5117V30.5117V39.3142C162.674 39.4342 162.627 39.5495 162.542 39.6329C162.461 39.7209 162.347 39.7693 162.228 39.7657H159.46C159.346 39.762 159.238 39.7101 159.162 39.6223C159.068 39.5475 159.009 39.4356 159 39.3142H159Z" fill="#184472"/>
<path d="M183.034 38.5628V26.338H179.471C179.345 26.3414 179.223 26.2967 179.134 26.2145C179.047 26.132 178.999 26.0211 179 25.906V23.4322C178.999 23.3171 179.047 23.2062 179.134 23.1236C179.223 23.0414 179.345 22.9967 179.471 23.0002H190.524C190.65 22.9967 190.771 23.0414 190.86 23.1236C190.951 23.2044 191.002 23.316 191 23.4322V25.9265C191 26.042 190.95 26.1527 190.86 26.2339C190.771 26.315 190.65 26.3599 190.524 26.3586H186.966V38.5628C186.945 38.7958 186.744 38.9807 186.49 39H183.504C183.38 38.9966 183.262 38.9464 183.179 38.8611C183.087 38.7848 183.035 38.6766 183.034 38.5628Z" fill="#184472"/>
<path d="M196 32.7364V23.4261C196.004 23.3136 196.054 23.2075 196.139 23.132C196.214 23.0511 196.32 23.0036 196.431 23.0002H199.236C199.351 22.9968 199.463 23.0409 199.544 23.1219C199.624 23.2033 199.668 23.3127 199.667 23.4261V32.5538C199.646 33.309 199.934 34.0405 200.467 34.5822C200.984 35.1304 201.713 35.4346 202.472 35.4189C203.242 35.4439 203.987 35.1455 204.523 34.5974C205.06 34.058 205.353 33.3259 205.333 32.569V23.4414C205.332 23.3279 205.376 23.2185 205.456 23.1371C205.537 23.0561 205.649 23.012 205.764 23.0154H208.569C208.682 23.0197 208.788 23.0669 208.866 23.1472C208.948 23.2245 208.995 23.33 209 23.4414V32.7364C209.018 34.409 208.324 36.012 207.087 37.1531C205.866 38.3636 204.2 39.0301 202.472 38.999C200.761 39.0237 199.115 38.357 197.913 37.1531C196.679 36.0101 195.985 34.4083 196 32.7364V32.7364Z" fill="#184472"/>
<path d="M215.002 39.2451L217.694 23.3795C217.695 23.2712 217.743 23.1683 217.825 23.0964C217.907 23.0245 218.016 22.9903 218.125 23.0024H218.508C218.679 22.9931 218.839 23.0878 218.911 23.2414L224.463 33.4396H224.512L230.079 23.2414C230.153 23.0859 230.315 22.9908 230.489 23.0024H230.871C230.98 22.992 231.088 23.0268 231.17 23.0983C231.251 23.1699 231.299 23.2717 231.302 23.3795L233.994 39.2451C234.016 39.3803 233.977 39.5182 233.886 39.6223C233.799 39.7181 233.673 39.7706 233.542 39.7657H230.715C230.605 39.764 230.499 39.7224 230.419 39.6488C230.338 39.5823 230.283 39.4904 230.262 39.3885L229.186 32.0905H229.137L225.115 39.7391C225.05 39.9021 224.888 40.0068 224.711 39.9994H224.28C224.101 40.0091 223.936 39.9041 223.871 39.7391L219.848 32.0905H219.8L218.771 39.3885C218.766 39.5003 218.714 39.6049 218.627 39.6767C218.54 39.7484 218.426 39.7807 218.314 39.7657H215.492C215.36 39.77 215.232 39.7177 215.142 39.6223C215.04 39.5237 214.989 39.3852 215.002 39.2451Z" fill="#184472"/>
<path fill-rule="evenodd" clip-rule="evenodd" d="M97.0012 31.0252C96.963 33.1497 97.8053 35.1956 99.3286 36.6784C100.812 38.201 102.861 39.041 104.987 38.9985C107.118 39.0392 109.171 38.1998 110.661 36.6784C112.189 35.198 113.036 33.1515 112.999 31.0252C113.035 28.8917 112.189 26.8377 110.661 25.3467C109.178 23.8125 107.122 22.963 104.987 23.0014C102.856 22.9611 100.805 23.8112 99.3286 25.3467C97.8059 26.8405 96.9644 28.8936 97.0012 31.0252ZM101.864 34.1456C101.015 33.3303 100.54 32.2016 100.551 31.0252C100.536 29.8378 101.011 28.6967 101.864 27.8694C102.675 27.0125 103.807 26.5332 104.987 26.5473C106.171 26.5338 107.307 27.0106 108.126 27.8643C108.982 28.6895 109.457 29.832 109.439 31.0202C109.455 32.199 108.979 33.3312 108.126 34.1456C107.302 34.9894 106.167 35.4582 104.987 35.4424C103.812 35.46 102.681 34.9906 101.864 34.1456Z" fill="#184472"/>
<circle cx="113.5" cy="37.5" r="1.5" fill="#184472"/>
<path d="M98.229 66.2775C98.1374 66.2037 98.0661 66.1098 98.0214 66.0038C98.0177 65.8825 98.051 65.7628 98.1172 65.6591L99.214 63.8143C99.2948 63.6789 99.4445 63.5942 99.608 63.5912C99.7487 63.5645 99.8947 63.5979 100.007 63.6825L100.167 63.7686C100.277 63.843 100.405 63.9241 100.55 64.0119C100.732 64.1201 100.92 64.2166 101.115 64.3008C101.338 64.4072 101.562 64.5035 101.791 64.5897C102.032 64.6843 102.282 64.7589 102.536 64.8127C102.793 64.8718 103.055 64.9024 103.319 64.9039C103.74 64.9186 104.152 64.7831 104.474 64.5238C104.77 64.2882 104.936 63.9376 104.927 63.571C104.927 62.679 104.128 61.9339 102.526 61.3257C99.5086 60.187 98.0001 58.5516 98.0001 56.4196C97.9919 55.2379 98.5082 54.1078 99.4217 53.3076C100.376 52.4359 101.702 52 103.399 52C105.209 52.0215 106.963 52.6052 108.393 53.6624C108.52 53.7431 108.597 53.8773 108.601 54.0223C108.624 54.1446 108.599 54.2709 108.531 54.377L107.339 56.0851C107.246 56.2196 107.112 56.3239 106.955 56.3841C106.829 56.456 106.672 56.456 106.546 56.3841C106.449 56.3312 106.356 56.2719 106.269 56.2067C106.081 56.0799 105.886 55.9648 105.683 55.8621L104.948 55.4971C104.674 55.3563 104.385 55.2442 104.086 55.1626C103.805 55.0858 103.515 55.0449 103.223 55.041C102.837 55.0263 102.459 55.1452 102.158 55.3755C101.895 55.5658 101.74 55.8617 101.738 56.1763C101.744 56.6207 101.959 57.0391 102.323 57.3167C102.916 57.7512 103.577 58.0933 104.283 58.3303C107.424 59.5129 108.996 61.2024 109 63.3987C108.992 64.6261 108.437 65.7925 107.472 66.6069C106.39 67.5532 104.958 68.0525 103.489 67.9956C102.36 68.0288 101.236 67.839 100.188 67.4381C99.4676 67.1659 98.8039 66.7728 98.229 66.2775V66.2775Z" fill="#D94923"/>
<path d="M117.698 67.567V55.3597H114.432C114.316 55.3611 114.205 55.3152 114.123 55.2326C114.042 55.1499 113.997 55.0376 114 54.9214V52.433C113.999 52.3178 114.044 52.2068 114.125 52.1253C114.207 52.0438 114.317 51.9986 114.432 52H124.568C124.683 51.9986 124.793 52.0438 124.875 52.1253C124.956 52.2068 125.001 52.3178 125 52.433V54.9214C125.003 55.0376 124.958 55.1499 124.877 55.2326C124.795 55.3152 124.684 55.3611 124.568 55.3597H121.302V67.567C121.285 67.7985 121.101 67.9826 120.87 68H118.13C117.899 67.9826 117.715 67.7985 117.698 67.567V67.567Z" fill="#D94923"/>
<path fill-rule="evenodd" clip-rule="evenodd" d="M129.002 60.023C128.956 62.1439 129.788 64.1898 131.302 65.6776H131.327C134.47 68.7741 139.52 68.7741 142.663 65.6776C144.191 64.1965 145.037 62.1494 144.999 60.023C145.035 57.8896 144.19 55.8355 142.663 54.3432C139.532 51.2189 134.459 51.2189 131.327 54.3432C129.805 55.8379 128.964 57.8914 129.002 60.023ZM133.86 63.1419C133.013 62.3269 132.541 61.198 132.556 60.023C132.539 58.8358 133.01 57.6936 133.86 56.8636C134.686 56.0271 135.814 55.5561 136.99 55.5561C138.167 55.5561 139.294 56.0271 140.12 56.8636C140.975 57.6911 141.45 58.834 141.435 60.023C141.448 61.1998 140.972 62.3293 140.12 63.1419C139.292 63.9759 138.166 64.4451 136.99 64.4451C135.815 64.4451 134.688 63.9759 133.86 63.1419Z" fill="#D94923"/>
<path fill-rule="evenodd" clip-rule="evenodd" d="M152 52.4336V67.5609H152.015C152.014 67.6771 152.059 67.7889 152.14 67.8705C152.221 67.9522 152.331 67.9967 152.444 67.9939H155.106C155.221 67.9945 155.33 67.9452 155.407 67.8583C155.483 67.7784 155.527 67.6722 155.53 67.5609V61.7291H157.062L160.02 67.7904C160.089 67.926 160.229 68.0078 160.378 67.9991H163.356C163.518 68.0098 163.671 67.9245 163.749 67.78C163.834 67.6448 163.834 67.4718 163.749 67.3366L160.684 61.5309C161.638 61.1539 162.472 60.517 163.095 59.6895C163.69 58.9006 164.008 57.9308 164 56.9353C164.016 55.6217 163.498 54.3601 162.569 53.4508C161.664 52.5036 160.417 51.979 159.121 52.0006H152.429C152.315 51.9978 152.205 52.0423 152.124 52.124C152.044 52.2057 151.999 52.3174 152 52.4336ZM158.83 58.8288H155.515V55.2556H158.83C159.282 55.2533 159.715 55.4421 160.025 55.7773C160.354 56.0945 160.538 56.5364 160.536 56.9979C160.538 57.4776 160.355 57.9388 160.025 58.2811C159.723 58.6307 159.287 58.8303 158.83 58.8288Z" fill="#D94923"/>
<path d="M170 67.5667V52.4333C169.998 52.3179 170.042 52.2066 170.121 52.1254C170.199 52.0423 170.307 51.9969 170.419 52.0002H179.581C179.692 51.9988 179.8 52.0439 179.879 52.1255C179.958 52.207 180.001 52.318 180 52.4333V54.9173C180.003 55.0335 179.96 55.1458 179.88 55.2285C179.801 55.3112 179.693 55.3571 179.581 55.3556H173.449V58.1892H178.5C178.612 58.1859 178.72 58.2313 178.798 58.3145C178.877 58.3957 178.921 58.5069 178.919 58.6223V61.1167C178.921 61.2322 178.877 61.3434 178.798 61.4246C178.72 61.5077 178.612 61.5532 178.5 61.5499H173.449V64.6392H179.581C179.692 64.6378 179.8 64.6829 179.879 64.7645C179.958 64.846 180.001 64.957 180 65.0723V67.5667C180.001 67.682 179.958 67.793 179.879 67.8745C179.8 67.9561 179.692 68.0012 179.581 67.9998H170.419C170.307 68.0031 170.199 67.9577 170.121 67.8746C170.042 67.7934 169.998 67.6821 170 67.5667V67.5667Z" fill="#D94923"/>
<path d="M0.5 21L5 28L6 29.5L42.5 10.5L37 0.5L0.5 21Z" fill="#B3D4F1"/>
<path d="M45 0.5L82 21L76 30L40.5 9L45 0.5Z" fill="#B3D4F1"/>
<path d="M77.5 28L41 7V48L77.5 28Z" fill="#005183"/>
<path d="M4.5 28L41 7V48L4.5 28Z" fill="#3E6895"/>
<path d="M62 42C62 53.0457 53.1503 62 41 62C28.8497 62 20 53.0457 20 42C20 30.9543 28.8497 22 41 22C53.1503 22 62 30.9543 62 42ZM30.2793 42C30.2793 47.3826 35.0791 51.7461 41 51.7461C46.9209 51.7461 51.7207 47.3826 51.7207 42C51.7207 36.6174 46.9209 32.2539 41 32.2539C35.0791 32.2539 30.2793 36.6174 30.2793 42Z" fill="white"/>
<path d="M41 89V48L4.5 28V69L41 89Z" fill="#57AEE1"/>
<path d="M77 28L41 48V89L77 69V28Z" fill="#D9EFFC"/>
<circle cx="53" cy="61" r="3" fill="#134472"/>
<circle cx="68" cy="53" r="3" fill="#134472"/>
</svg>
